<svg width="34" height="88" viewBox="0 0 34 88" fill="none" xmlns="http://www.w3.org/2000/svg">
<path fill-rule="evenodd" clip-rule="evenodd" d="M12.3849 50.1558H21.6148V53.398C22.7695 54.3617 24.2381 54.8684 25.742 54.822C27.2459 54.7756 28.6804 54.1792 29.7732 53.1461C29.9961 52.9363 30.2931 52.8231 30.5993 52.8313C30.9054 52.8396 31.1959 52.9685 31.4072 53.1899C31.6136 53.4172 31.7232 53.716 31.713 54.0227C31.7027 54.3294 31.5734 54.6199 31.3523 54.833C30.0731 56.0451 28.4456 56.8262 26.6988 57.0659C24.952 57.3056 23.1739 56.9919 21.6148 56.1693V61.7666H12.3861V56.1802C10.8259 56.9976 9.04913 57.3081 7.30375 57.0686C5.55836 56.829 3.93132 56.0514 2.64962 54.8439C2.42525 54.6326 2.29378 54.3413 2.28392 54.0334C2.27405 53.7255 2.38663 53.4261 2.59701 53.2009C2.69994 53.0893 2.82402 52.9992 2.96211 52.9359C3.1002 52.8726 3.24953 52.8375 3.40137 52.8324C3.5532 52.8273 3.70455 52.8524 3.84658 52.9062C3.98861 52.9601 4.11848 53.0416 4.22868 53.1461C5.32234 54.1774 6.75592 54.7736 8.25916 54.822C9.7624 54.8704 11.2315 54.3678 12.3894 53.409L12.3849 50.1558ZM10.0822 47.8448V52.1494C9.38054 52.4715 8.59855 52.5768 7.83657 52.4519C7.07459 52.327 6.36734 51.9774 5.80553 51.4483C5.47259 51.1384 5.08145 50.8978 4.65475 50.7399C4.22805 50.5819 3.77426 50.51 3.31958 50.5283C2.8649 50.5467 2.41839 50.6548 2.00583 50.8466C1.59326 51.0383 1.22281 51.31 0.915949 51.6456C0.300278 52.3201 -0.0276591 53.208 0.0018296 54.1203C0.0313183 55.0326 0.415887 55.8974 1.07384 56.5308C2.26247 57.652 3.69107 58.4881 5.25129 58.9758C6.81152 59.4635 8.46245 59.5902 10.0789 59.3459V64.0886H23.9209V59.3459C25.537 59.5904 27.1876 59.4638 28.7475 58.9761C30.3074 58.4883 31.7356 57.6521 32.9237 56.5308C33.5879 55.8919 33.973 55.0172 33.9956 54.0965C34.0182 53.1758 33.6764 52.2833 33.0443 51.6127C32.4218 50.9517 31.5628 50.5634 30.6548 50.5326C29.7468 50.5018 28.8635 50.831 28.1975 51.4483C27.6384 51.9819 26.9309 52.3345 26.1678 52.4596C25.4046 52.5847 24.6214 52.4766 23.9209 52.1494V47.8448H10.0789H10.0822ZM12.3849 26.2447H21.6148V29.4868C22.7723 30.4457 24.241 30.9483 25.7439 30.8999C27.2468 30.8514 28.6801 30.2553 29.7732 29.224C29.8837 29.1196 30.0138 29.0379 30.156 28.9841C30.2982 28.9303 30.4497 28.9052 30.6017 28.9103C30.7537 28.9154 30.9031 28.9506 31.0413 29.0138C31.1796 29.077 31.304 29.167 31.4072 29.2785C31.6133 29.5059 31.7228 29.8046 31.7126 30.1113C31.7024 30.4179 31.5731 30.7083 31.3523 30.9215C30.0704 32.1291 28.4433 32.9069 26.6977 33.1464C24.9521 33.386 23.1752 33.0756 21.6148 32.2581V37.8442H12.3861V32.2581C10.8266 33.0782 9.04919 33.3901 7.30314 33.1505C5.5571 32.9108 3.92989 32.1314 2.64962 30.9215C2.42499 30.7104 2.29331 30.419 2.28345 30.111C2.27358 29.803 2.38636 29.5036 2.59701 29.2785C2.69994 29.1669 2.82402 29.077 2.96211 29.0138C3.1002 28.9505 3.24953 28.9151 3.40137 28.91C3.5532 28.9049 3.70455 28.9302 3.84658 28.9841C3.98861 29.0379 4.11848 29.1195 4.22868 29.224C5.32107 30.2577 6.75505 30.8552 8.25903 30.9036C9.763 30.9521 11.2326 30.4481 12.3894 29.4868L12.3849 26.2447ZM10.0822 23.9224V28.227C9.38054 28.5491 8.59855 28.6544 7.83657 28.5295C7.07459 28.4046 6.36734 28.0553 5.80553 27.5261C5.47244 27.2159 5.08089 26.9749 4.65368 26.8172C4.22647 26.6595 3.7722 26.5882 3.31717 26.6075C2.86215 26.6269 2.41551 26.7366 2.00328 26.93C1.59105 27.1235 1.22142 27.3967 0.915949 27.7342C0.300702 28.4067 -0.0271341 29.2929 0.00236504 30.2035C0.0318642 31.1141 0.416344 31.977 1.07384 32.6084C2.26247 33.7296 3.69107 34.5659 5.25129 35.0537C6.81152 35.5414 8.46245 35.6678 10.0789 35.4235V40.1664H23.9209V35.4235C25.537 35.6706 27.1884 35.5453 28.7487 35.0574C30.309 34.5695 31.7371 33.7319 32.9237 32.6084C33.5879 31.9695 33.973 31.0948 33.9956 30.1741C34.0182 29.2534 33.6764 28.3609 33.0443 27.6903C32.4218 27.0282 31.5616 26.6403 30.6527 26.6116C29.7438 26.5828 28.8607 26.9157 28.1975 27.5371C27.6359 28.0668 26.9279 28.4158 26.1654 28.5388C25.4029 28.6619 24.6209 28.5531 23.9209 28.227V23.9224H10.0789H10.0822ZM12.3849 2.32226H21.6148V5.56443C22.7723 6.52329 24.241 7.02589 25.7439 6.97747C27.2468 6.92904 28.6801 6.33294 29.7732 5.30156C29.9976 5.09316 30.2954 4.98189 30.6016 4.99216C30.9077 5.00242 31.1974 5.13343 31.4072 5.35638C31.6136 5.58368 31.7232 5.88216 31.713 6.18885C31.7027 6.49554 31.5734 6.78633 31.3523 6.9994C30.073 8.21129 28.4454 8.99209 26.6987 9.2318C24.952 9.47151 23.174 9.15804 21.6148 8.33568V13.922H12.3861V8.33568C10.827 9.15836 9.04889 9.47179 7.30207 9.23207C5.55525 8.99234 3.92773 8.21158 2.64855 6.9994C2.42563 6.78719 2.29523 6.49576 2.28559 6.18832C2.27595 5.88088 2.38784 5.58211 2.59701 5.35638C2.70068 5.2455 2.82537 5.15635 2.96385 5.09404C3.10233 5.03174 3.25182 4.99757 3.40364 4.99349C3.55547 4.98942 3.70662 5.01546 3.84825 5.07024C3.98989 5.12503 4.1192 5.20737 4.22868 5.31252C5.32294 6.34247 6.75676 6.93667 8.25956 6.98308C9.76236 7.02949 11.2302 6.52489 12.3861 5.56443V2.32226H12.3849ZM10.0822 0V4.30489C9.38162 4.63202 8.59849 4.73992 7.83536 4.61483C7.07224 4.48974 6.36469 4.13734 5.80553 3.60372C5.47188 3.29456 5.08018 3.05448 4.65308 2.89747C4.22598 2.74046 3.772 2.6698 3.3173 2.68915C2.86261 2.70851 2.41626 2.81759 2.00409 3.01032C1.59191 3.20305 1.22206 3.47538 0.915949 3.81177C0.301124 4.48476 -0.0261425 5.37132 0.00397134 6.28191C0.0340852 7.19251 0.419233 8.05527 1.07718 8.68627C2.26422 9.80986 3.69261 10.6474 5.2533 11.1353C6.81399 11.6232 8.46567 11.7483 10.0822 11.5011V16.244H23.9209V11.5011C25.5362 11.7476 27.1865 11.6233 28.7464 11.1374C30.3064 10.6516 31.7349 9.81705 32.9237 8.69723C33.588 8.0562 33.9731 7.17967 33.9957 6.25731C34.0182 5.33496 33.6765 4.44088 33.0443 3.76819C32.4218 3.10611 31.5616 2.71791 30.6527 2.68915C29.7438 2.6604 28.8607 2.99329 28.1975 3.61469C27.6361 4.14478 26.9281 4.49418 26.1655 4.61724C25.4028 4.74029 24.6208 4.63146 23.9209 4.30489V0H10.0789H10.0822ZM9.74118 45.161C9.4329 45.161 9.1372 45.0388 8.91922 44.8211C8.70123 44.6034 8.57881 44.3081 8.57881 44.0001C8.57881 43.6922 8.70123 43.3969 8.91922 43.1792C9.1372 42.9614 9.4329 42.839 9.74118 42.839H24.2608C24.5685 42.8439 24.8618 42.9697 25.0773 43.1891C25.2928 43.4084 25.4131 43.7038 25.4122 44.0111C25.4122 44.1621 25.3824 44.3115 25.3246 44.451C25.2667 44.5905 25.1819 44.7175 25.075 44.8243C24.9681 44.9311 24.8411 45.0157 24.7014 45.0735C24.5617 45.1313 24.412 45.161 24.2608 45.161H9.73897H9.74118ZM12.3883 74.0782H21.6181V77.3204C22.7741 78.2826 24.2434 78.7875 25.7474 78.7391C27.2513 78.6906 28.6851 78.0922 29.7766 77.0575C30.0009 76.8491 30.2987 76.7379 30.6048 76.7481C30.911 76.7584 31.2006 76.8894 31.4105 77.1124C31.6168 77.3396 31.7265 77.6381 31.7163 77.9448C31.706 78.2515 31.5767 78.5423 31.3556 78.7554C30.0753 79.9655 28.4479 80.7449 26.7016 80.9846C24.9553 81.2242 23.1777 80.912 21.6181 80.0917V85.6777H12.3894V80.0917C10.8305 80.9142 9.05258 81.2278 7.30595 80.988C5.55933 80.7483 3.9319 79.9675 2.6529 78.7554C2.42827 78.5442 2.29659 78.2525 2.28673 77.9446C2.27686 77.6366 2.38964 77.3374 2.60029 77.1124C2.70396 77.0015 2.82865 76.9123 2.96713 76.85C3.10561 76.7877 3.25516 76.7535 3.40699 76.7495C3.55882 76.7454 3.7099 76.7714 3.85153 76.8262C3.99317 76.881 4.12248 76.9633 4.23196 77.0685C5.32561 78.1009 6.76035 78.6966 8.26438 78.7431C9.76841 78.7895 11.2373 78.2833 12.3926 77.3204L12.3883 74.0782ZM10.0855 71.756V76.0609C9.3849 76.388 8.60177 76.4959 7.83864 76.3708C7.07552 76.2457 6.36803 75.8933 5.80888 75.3597C5.47523 75.0505 5.08352 74.8104 4.65643 74.6534C4.22933 74.4964 3.77527 74.4258 3.32058 74.4451C2.86589 74.4645 2.41954 74.5736 2.00736 74.7663C1.59519 74.959 1.22534 75.2313 0.919229 75.5677C0.303719 76.2402 -0.0242588 77.1264 0.005243 78.0371C0.0347448 78.9477 0.419437 79.811 1.07718 80.4422C2.26435 81.5656 3.69278 82.4031 5.25343 82.891C6.81409 83.3789 8.46568 83.504 10.0822 83.2571V88H23.9242V83.268C25.5403 83.5125 27.1909 83.3862 28.7508 82.8985C30.3107 82.4107 31.7389 81.5745 32.927 80.4532C33.5913 79.8122 33.9764 78.9356 33.999 78.0133C34.0215 77.0909 33.6798 76.1968 33.0476 75.5242C32.4237 74.8644 31.5639 74.4779 30.6558 74.4491C29.7478 74.4204 28.8652 74.7517 28.2008 75.3707C27.6388 75.8994 26.9315 76.2486 26.1696 76.3735C25.4078 76.4984 24.6259 76.3934 23.9242 76.0718V71.756H10.0789H10.0855ZM9.74446 69.0834C9.43618 69.0834 9.14048 68.961 8.9225 68.7432C8.70451 68.5255 8.58209 68.2302 8.58209 67.9223C8.58209 67.6143 8.70451 67.319 8.9225 67.1013C9.14048 66.8836 9.43618 66.7614 9.74446 66.7614H24.2641C24.5724 66.7614 24.8681 66.8836 25.086 67.1013C25.304 67.319 25.4265 67.6143 25.4265 67.9223C25.4265 68.2302 25.304 68.5255 25.086 68.7432C24.8681 68.961 24.5724 69.0834 24.2641 69.0834H9.73897H9.74446ZM9.74446 18.9276C9.43763 18.9276 9.14334 19.0494 8.92638 19.2661C8.70942 19.4828 8.58758 19.7769 8.58758 20.0833C8.58758 20.3898 8.70942 20.6836 8.92638 20.9003C9.14334 21.117 9.43763 21.2389 9.74446 21.2389H24.2641C24.5709 21.2389 24.8652 21.117 25.0822 20.9003C25.2991 20.6836 25.421 20.3898 25.421 20.0833C25.421 19.7769 25.2991 19.4828 25.0822 19.2661C24.8652 19.0494 24.5709 18.9276 24.2641 18.9276H9.73897H9.74446Z" fill="#008833"/>
</svg>
