<svg width="80" height="81" viewBox="0 0 80 81" fill="none" xmlns="http://www.w3.org/2000/svg">
<path fill-rule="evenodd" clip-rule="evenodd" d="M77.767 77.9199H2.22498V69.95C2.22498 62.0499 6.07401 58.2901 16.937 55.6001C25.689 53.4301 30.129 48.87 30.129 42.05C30.0405 39.5164 29.5539 37.0125 28.687 34.6301C28.5947 34.3842 28.4173 34.1793 28.1871 34.0527C27.9569 33.9262 27.6891 33.8862 27.432 33.9399C26.758 34.0699 25.353 34.3501 23.65 30.0701C22.178 26.3801 24.017 25.35 24.211 25.25C24.4397 25.1515 24.6279 24.9778 24.7444 24.7578C24.861 24.5378 24.899 24.2846 24.852 24.04C23.496 16.77 24.398 11.1899 27.529 7.43994C31.688 2.45994 38.645 2.20996 39.997 2.20996C41.349 2.20996 48.306 2.45994 52.469 7.43994C55.6 11.1799 56.501 16.77 55.146 24.04C55.1016 24.2844 55.1407 24.5366 55.257 24.7561C55.3732 24.9756 55.5599 25.1495 55.787 25.25C55.807 25.26 57.88 26.2301 56.348 30.0701C54.648 34.3401 53.248 34.0599 52.565 33.9299C52.3069 33.8807 52.0397 33.924 51.8102 34.052C51.5808 34.18 51.4037 34.3847 51.31 34.6301C50.4403 37.0117 49.9535 39.5161 49.868 42.05C49.868 48.87 54.308 53.4201 63.061 55.6001C73.923 58.2901 77.772 62.04 77.772 69.95L77.767 77.9199ZM63.594 53.45C53.279 50.9 52.083 45.72 52.083 42.05C52.1478 40.0607 52.4963 38.0907 53.118 36.2C55.291 36.16 56.99 34.4499 58.409 30.8899C59.938 27.0499 58.72 24.74 57.454 23.72C58.74 16.12 57.635 10.17 54.17 6.03003C49.5 0.430029 42.139 0 39.996 0C37.853 0 30.496 0.430029 25.818 6.03003C22.353 10.17 21.252 16.12 22.534 23.72C21.272 24.75 20.05 27.0499 21.579 30.8899C22.998 34.4499 24.697 36.16 26.87 36.2C27.4917 38.0907 27.8402 40.0607 27.905 42.05C27.905 45.72 26.71 50.8899 16.394 53.45C4.59398 56.38 0 61 0 69.95V79.02C0.000793666 79.3145 0.118234 79.5966 0.32666 79.8047C0.535086 80.0127 0.817506 80.1299 1.112 80.1301H78.878C79.1724 80.1299 79.4546 80.0128 79.6629 79.8047C79.8712 79.5966 79.9884 79.3144 79.989 79.02V69.95C79.989 61 75.389 56.38 63.589 53.45H63.594ZM36.748 24.3401L35.74 25.3301C35.5733 25.4956 35.3586 25.604 35.1265 25.6399C34.8944 25.6758 34.6569 25.6374 34.448 25.53L34.368 25.49C34.1148 25.361 33.9213 25.139 33.8281 24.8706C33.7349 24.6022 33.7492 24.3082 33.868 24.05L34.175 23.3899C34.2298 23.2746 34.3042 23.1699 34.395 23.0801L34.689 22.79C34.7921 22.6874 34.9147 22.6062 35.0494 22.5513C35.1842 22.4963 35.3285 22.4687 35.474 22.47H35.961C36.1897 22.4685 36.4132 22.538 36.6009 22.6687C36.7886 22.7994 36.9311 22.9849 37.009 23.2C37.0775 23.3955 37.0892 23.6065 37.0424 23.8083C36.9957 24.0102 36.8925 24.1946 36.745 24.3401H36.748ZM39.108 22.46C38.8759 21.8128 38.4496 21.2533 37.8874 20.8577C37.3251 20.4621 36.6544 20.2498 35.967 20.25H35.48C35.0429 20.2477 34.6098 20.3323 34.2057 20.4988C33.8016 20.6653 33.4346 20.9105 33.126 21.22L32.833 21.51C32.5567 21.7815 32.3305 22.0997 32.165 22.45L31.855 23.1201C31.4917 23.895 31.4451 24.7811 31.7253 25.5898C32.0054 26.3985 32.5902 27.0658 33.355 27.45L33.435 27.49C34.061 27.8128 34.7732 27.9286 35.4692 27.8208C36.1652 27.713 36.809 27.387 37.308 26.8899L38.316 25.8999C38.7634 25.4624 39.0764 24.9064 39.2181 24.2969C39.3599 23.6874 39.3244 23.05 39.116 22.46H39.108ZM42.977 23.2C43.0543 22.9838 43.1965 22.7967 43.384 22.6643C43.5716 22.5319 43.7954 22.4605 44.025 22.46H44.513C44.8086 22.4616 45.0916 22.5803 45.3 22.79L45.594 23.0801C45.6873 23.1677 45.7621 23.2729 45.814 23.3899L46.125 24.05C46.2461 24.3078 46.2616 24.6028 46.1682 24.8718C46.0747 25.1409 45.8798 25.3627 45.625 25.49L45.545 25.53C45.335 25.6325 45.0986 25.6683 44.8676 25.6326C44.6367 25.5968 44.4222 25.4913 44.253 25.3301L43.245 24.3301C43.0964 24.1875 42.9918 24.005 42.944 23.8047C42.8961 23.6043 42.9069 23.3944 42.975 23.2H42.977ZM42.687 26.8999C43.1882 27.3932 43.8322 27.7161 44.5275 27.822C45.2227 27.928 45.9336 27.8117 46.559 27.49L46.635 27.45C47.4007 27.0668 47.9863 26.3994 48.2665 25.5903C48.5468 24.7813 48.4996 23.8948 48.135 23.1201L47.825 22.46C47.6606 22.1098 47.4354 21.7916 47.16 21.52L46.867 21.23C46.5584 20.9205 46.1914 20.6753 45.7873 20.5088C45.3832 20.3423 44.9501 20.2578 44.513 20.26H44.019C43.361 20.2549 42.7164 20.4462 42.1677 20.8096C41.6191 21.1729 41.1913 21.6917 40.9393 22.2996C40.6872 22.9074 40.6223 23.5767 40.7529 24.2217C40.8834 24.8667 41.2034 25.4579 41.672 25.9199L42.687 26.8999ZM38.537 26.5801C38.2426 26.5803 37.9603 26.6972 37.752 26.9053C37.5437 27.1134 37.4265 27.3955 37.426 27.6899V29.24C37.4346 29.529 37.5556 29.8033 37.7631 30.0046C37.9706 30.206 38.2483 30.3186 38.5375 30.3186C38.8266 30.3186 39.1044 30.206 39.3119 30.0046C39.5194 29.8033 39.6403 29.529 39.649 29.24V27.6899C39.6485 27.3954 39.5311 27.1131 39.3226 26.905C39.1141 26.6969 38.8316 26.5801 38.537 26.5801ZM41.455 30.3501C41.7495 30.3498 42.0319 30.2327 42.2403 30.0247C42.4487 29.8166 42.5662 29.5345 42.567 29.24V27.6799C42.567 27.385 42.4498 27.1023 42.2413 26.8938C42.0327 26.6853 41.7499 26.5681 41.455 26.5681C41.16 26.5681 40.8772 26.6853 40.6687 26.8938C40.4602 27.1023 40.343 27.385 40.343 27.6799V29.24C40.3438 29.5345 40.4613 29.8166 40.6697 30.0247C40.8781 30.2327 41.1605 30.3498 41.455 30.3501ZM62.476 66C62.2136 65.997 61.9579 65.9165 61.7412 65.7686C61.5245 65.6206 61.3564 65.412 61.258 65.1687C61.1596 64.9254 61.1354 64.6584 61.1884 64.4014C61.2414 64.1444 61.3693 63.9089 61.5558 63.7244C61.7424 63.5399 61.9794 63.4146 62.237 63.3645C62.4946 63.3144 62.7612 63.3418 63.0034 63.4429C63.2455 63.544 63.4524 63.7142 63.5978 63.9326C63.7433 64.151 63.821 64.4075 63.821 64.6699C63.8202 64.8456 63.7848 65.0194 63.7167 65.1814C63.6487 65.3434 63.5493 65.4905 63.4244 65.614C63.2994 65.7376 63.1514 65.8351 62.9886 65.9014C62.8259 65.9676 62.6516 66.0012 62.476 66ZM17.901 66C17.6387 65.9968 17.3831 65.9161 17.1665 65.7681C16.9499 65.62 16.7819 65.4113 16.6837 65.168C16.5855 64.9247 16.5614 64.6578 16.6145 64.4009C16.6676 64.1439 16.7956 63.9085 16.9822 63.7241C17.1688 63.5397 17.4058 63.4145 17.6633 63.3645C17.9209 63.3145 18.1875 63.3418 18.4296 63.4429C18.6717 63.544 18.8785 63.7145 19.0239 63.9329C19.1694 64.1512 19.247 64.4076 19.247 64.6699C19.2464 64.8457 19.211 65.0198 19.1429 65.1819C19.0748 65.344 18.9754 65.4912 18.8503 65.6147C18.7253 65.7383 18.577 65.836 18.4141 65.9021C18.2511 65.9682 18.0768 66.0014 17.901 66ZM37.082 35.9199V33.1899C37.0814 32.6814 36.9699 32.1791 36.7554 31.718C36.5409 31.2569 36.2285 30.8481 35.84 30.52L35.68 30.3899C35.1569 29.9489 34.5173 29.6692 33.8385 29.584C33.1597 29.4988 32.4708 29.6119 31.855 29.9099L30.803 30.4199C30.5549 30.5411 30.2746 30.5798 30.003 30.53L29.459 30.4399C29.2342 30.4015 29.0236 30.3044 28.8484 30.1584C28.6733 30.0124 28.5398 29.8228 28.4615 29.6086C28.3833 29.3945 28.363 29.1635 28.4028 28.939C28.4425 28.7144 28.5409 28.5044 28.688 28.3301C29.422 27.4717 29.8256 26.3794 29.826 25.25V24.75C29.8254 24.4154 29.8912 24.0841 30.0196 23.7751C30.148 23.4662 30.3364 23.1856 30.574 22.95L31.152 22.3701C31.7993 21.724 32.2277 20.8911 32.3768 19.9888C32.5258 19.0864 32.3881 18.16 31.983 17.3401C31.8527 17.0754 31.6229 16.8729 31.3438 16.7773C31.0647 16.6818 30.7591 16.7008 30.494 16.8301C30.3629 16.8933 30.2458 16.982 30.1492 17.0908C30.0527 17.1997 29.9787 17.3265 29.9315 17.4641C29.8844 17.6018 29.865 17.7474 29.8745 17.8926C29.884 18.0378 29.9223 18.1797 29.987 18.3101C30.1887 18.7193 30.2572 19.1814 30.1829 19.6316C30.1087 20.0817 29.8954 20.4973 29.573 20.8201L29.073 21.3101C27.558 14.0801 30.723 10.4301 32.919 8.84009C35.002 7.41344 37.4678 6.6499 39.9925 6.6499C42.5172 6.6499 44.983 7.41344 47.066 8.84009C49.266 10.4301 52.424 14.0801 50.912 21.3101L50.418 20.8201C50.0953 20.4974 49.8818 20.0818 49.8076 19.6316C49.7333 19.1814 49.802 18.7192 50.004 18.3101C50.1326 18.0448 50.1506 17.7394 50.054 17.4609C49.9574 17.1824 49.7542 16.9536 49.489 16.825C49.2237 16.6963 48.9183 16.6783 48.6398 16.7749C48.3613 16.8715 48.1326 17.0749 48.004 17.3401C47.5988 18.16 47.4611 19.0864 47.6102 19.9888C47.7592 20.8911 48.1876 21.724 48.835 22.3701L49.413 22.95C49.6502 23.1858 49.8384 23.4662 49.9666 23.7751C50.0948 24.0841 50.1605 24.4155 50.16 24.75V25.25C50.1603 26.3796 50.5642 27.4721 51.299 28.3301C51.4461 28.5044 51.5444 28.7144 51.5842 28.939C51.6239 29.1635 51.6036 29.3945 51.5254 29.6086C51.4471 29.8228 51.3137 30.0124 51.1385 30.1584C50.9634 30.3044 50.7527 30.4015 50.528 30.4399L49.983 30.53C49.7114 30.5799 49.431 30.5413 49.183 30.4199L48.128 29.9099C47.512 29.6118 46.8229 29.4986 46.1439 29.5837C45.4649 29.6689 44.8252 29.9489 44.302 30.3899L44.138 30.52C43.7496 30.8482 43.4374 31.2572 43.2231 31.7183C43.0088 32.1794 42.8975 32.6815 42.897 33.1899V35.9199C42.8964 36.1248 42.832 36.3246 42.7128 36.4912C42.5937 36.6579 42.4256 36.7833 42.232 36.8501L40.31 37.51C40.0973 37.58 39.8677 37.58 39.655 37.51L37.733 36.8501C37.5393 36.7833 37.3713 36.6579 37.2521 36.4912C37.133 36.3246 37.0686 36.1248 37.068 35.9199H37.082ZM65.847 63.5801C65.6128 62.8711 65.1613 62.2538 64.5565 61.8159C63.9516 61.3781 63.2243 61.1417 62.4776 61.1406C61.7309 61.1395 61.0028 61.3738 60.3967 61.8098C59.7906 62.2459 59.3372 62.8618 59.101 63.5701H41.108V60.6301H43.838C44.131 60.6301 44.4121 60.5136 44.6193 60.3064C44.8265 60.0992 44.943 59.818 44.943 59.5249C44.943 59.2318 44.8265 58.9509 44.6193 58.7437C44.4121 58.5364 44.131 58.4199 43.838 58.4199H41.108V55.48H43.838C44.131 55.48 44.4121 55.3635 44.6193 55.1562C44.8265 54.949 44.943 54.6681 44.943 54.375C44.943 54.0819 44.8265 53.801 44.6193 53.5938C44.4121 53.3865 44.131 53.27 43.838 53.27H41.108V50.3201H43.838C44.131 50.3201 44.4121 50.2036 44.6193 49.9963C44.8265 49.7891 44.943 49.5082 44.943 49.2151C44.943 48.922 44.8265 48.6408 44.6193 48.4336C44.4121 48.2264 44.131 48.1101 43.838 48.1101H41.108V45.1699H43.838C44.131 45.1699 44.4121 45.0537 44.6193 44.8464C44.8265 44.6392 44.943 44.358 44.943 44.0649C44.943 43.7719 44.8265 43.4909 44.6193 43.2837C44.4121 43.0765 44.131 42.96 43.838 42.96H41.108V39.5801L42.977 38.9299C43.6055 38.7159 44.1512 38.3105 44.5378 37.7708C44.9245 37.231 45.1326 36.5839 45.133 35.9199V33.1799C45.1335 32.9945 45.1748 32.8117 45.2539 32.644C45.3331 32.4764 45.4482 32.3281 45.591 32.21L45.754 32.0701C45.9484 31.9085 46.185 31.8056 46.4358 31.7737C46.6866 31.7418 46.9413 31.7821 47.17 31.8899L48.221 32.3999C48.8883 32.727 49.6427 32.8321 50.374 32.7L50.918 32.6101C51.5276 32.5085 52.0994 32.2467 52.5748 31.8518C53.0503 31.4569 53.4124 30.9429 53.6242 30.3623C53.836 29.7817 53.8899 29.1552 53.7805 28.5469C53.671 27.9386 53.402 27.3702 53.001 26.8999C52.6082 26.4397 52.3916 25.855 52.39 25.25V24.75C52.39 24.66 52.371 24.58 52.367 24.49C54.801 17 53.352 10.64 48.378 7.05005C45.9207 5.3316 42.9945 4.40991 39.996 4.40991C36.9974 4.40991 34.0713 5.3316 31.614 7.05005C26.643 10.64 25.195 17 27.625 24.49C27.625 24.58 27.601 24.66 27.601 24.75V25.25C27.6001 25.855 27.3839 26.4398 26.991 26.8999C26.5925 27.3711 26.3257 27.9393 26.2177 28.5469C26.1096 29.1544 26.1639 29.7797 26.3754 30.3594C26.5869 30.9391 26.9479 31.4527 27.4218 31.8479C27.8957 32.2431 28.4657 32.5062 29.074 32.6101L29.618 32.71C30.3513 32.8386 31.1066 32.7299 31.774 32.3999L32.826 31.8899C33.0545 31.7819 33.3091 31.7415 33.5598 31.7734C33.8104 31.8053 34.0468 31.9083 34.241 32.0701L34.401 32.21C34.5439 32.3281 34.6589 32.4764 34.7381 32.644C34.8173 32.8117 34.8585 32.9945 34.859 33.1799V35.9199C34.8611 36.5835 35.0698 37.2298 35.4562 37.7693C35.8426 38.3087 36.3874 38.7144 37.015 38.9299L38.884 39.5801V42.96H36.154C35.8609 42.96 35.5798 43.0765 35.3726 43.2837C35.1654 43.4909 35.049 43.7719 35.049 44.0649C35.049 44.358 35.1654 44.6392 35.3726 44.8464C35.5798 45.0537 35.8609 45.1699 36.154 45.1699H38.884V48.1101H36.154C35.8609 48.1101 35.5798 48.2264 35.3726 48.4336C35.1654 48.6408 35.049 48.922 35.049 49.2151C35.049 49.5082 35.1654 49.7891 35.3726 49.9963C35.5798 50.2036 35.8609 50.3201 36.154 50.3201H38.884V53.27H36.154C35.8609 53.27 35.5798 53.3865 35.3726 53.5938C35.1654 53.801 35.049 54.0819 35.049 54.375C35.049 54.6681 35.1654 54.949 35.3726 55.1562C35.5798 55.3635 35.8609 55.48 36.154 55.48H38.884V58.4199H36.154C35.8609 58.4199 35.5798 58.5364 35.3726 58.7437C35.1654 58.9509 35.049 59.2318 35.049 59.5249C35.049 59.818 35.1654 60.0992 35.3726 60.3064C35.5798 60.5136 35.8609 60.6301 36.154 60.6301H38.884V63.5701H21.273C21.0346 62.8538 20.5742 62.232 19.9586 61.7949C19.343 61.3579 18.6042 61.1283 17.8494 61.1394C17.0945 61.1505 16.3628 61.4019 15.7604 61.8569C15.158 62.3119 14.7161 62.9469 14.499 63.6699C12.9933 63.9662 11.6011 64.6792 10.4805 65.7275C9.35986 66.7758 8.55589 68.1175 8.15997 69.6001C8.11422 69.7385 8.09627 69.8844 8.10712 70.0298C8.11796 70.1751 8.15736 70.3169 8.22314 70.447C8.28893 70.5771 8.37976 70.693 8.49042 70.7878C8.60107 70.8827 8.72939 70.9548 8.86798 71C8.97999 71.0361 9.09731 71.0531 9.21497 71.05C9.44876 71.0519 9.67712 70.9792 9.86682 70.8425C10.0565 70.7059 10.1977 70.5124 10.27 70.29C10.5393 69.247 11.0794 68.2935 11.8355 67.5261C12.5916 66.7588 13.537 66.2046 14.576 65.9199C14.8376 66.6053 15.3047 67.1931 15.9131 67.6028C16.5216 68.0125 17.2419 68.2243 17.9753 68.209C18.7087 68.1937 19.4195 67.9519 20.0103 67.5171C20.6012 67.0823 21.0432 66.4757 21.276 65.78H38.891V69.95C38.8997 70.239 39.0205 70.5132 39.228 70.7146C39.4355 70.916 39.7134 71.0286 40.0025 71.0286C40.2916 71.0286 40.5694 70.916 40.7769 70.7146C40.9844 70.5132 41.1053 70.239 41.114 69.95V65.78H59.114C59.3494 66.4858 59.8004 67.0998 60.4033 67.5356C61.0063 67.9715 61.7308 68.2073 62.4748 68.2095C63.2188 68.2117 63.9447 67.9804 64.5502 67.5481C65.1558 67.1158 65.6104 66.5044 65.85 65.8C66.711 65.9 69.512 66.52 70.764 70.29C70.8362 70.5124 70.9775 70.7059 71.1672 70.8425C71.3569 70.9792 71.5852 71.0519 71.819 71.05C71.9366 71.0531 72.0539 71.0361 72.166 71C72.3044 70.9546 72.4326 70.8823 72.5431 70.7874C72.6536 70.6924 72.7443 70.5768 72.8101 70.4468C72.8758 70.3168 72.9153 70.1751 72.9263 70.0298C72.9372 69.8845 72.9194 69.7385 72.874 69.6001C71.121 64.3501 66.965 63.6701 65.85 63.5801H65.847Z" fill="#008833"/>
</svg>
