<svg width="72" height="71" viewBox="0 0 72 71" fill="none" xmlns="http://www.w3.org/2000/svg">
<path fill-rule="evenodd" clip-rule="evenodd" d="M33.8331 10.8601C33.8994 10.5401 34.0901 10.2595 34.3633 10.0801C34.6364 9.9007 34.9696 9.83726 35.2896 9.90356C35.6096 9.96987 35.8901 10.1604 36.0695 10.4336C36.2489 10.7067 36.3124 11.0401 36.2461 11.3601C35.9609 12.7912 35.4751 14.1747 34.8031 15.47L34.2371 15.98L20.3071 22.23C18.5791 22.92 17.5071 22.1401 16.3441 20.3301L13.3541 19.52C12.6065 19.2234 11.985 18.6763 11.5961 17.9722C11.2072 17.2681 11.075 16.4507 11.2221 15.6599L13.3121 4.37012C13.5236 3.23186 14.0962 2.19195 14.9452 1.40479C15.7941 0.617621 16.8741 0.125001 18.0251 0L34.4891 0.300049C36.8543 0.490352 39.0816 1.48961 40.7961 3.12988C54.6461 15.5099 67.6961 33.8101 70.6761 45.8401C71.7924 51.0651 71.0829 56.5149 68.6661 61.28C68.5364 61.542 68.3161 61.7481 68.0461 61.8601C46.3661 71.0801 28.7681 72.8101 14.2601 66.8201L10.2471 68.8999C9.95634 69.0476 9.619 69.075 9.30829 68.9758C8.99757 68.8766 8.73848 68.659 8.5871 68.3701C8.51281 68.2273 8.46749 68.0712 8.45373 67.9109C8.43998 67.7505 8.45807 67.5889 8.50696 67.4355C8.55584 67.2822 8.63456 67.1401 8.73859 67.0173C8.84261 66.8945 8.96988 66.7934 9.1131 66.72L13.6391 64.3701C13.8011 64.2865 13.9799 64.2403 14.1622 64.2351C14.3444 64.2299 14.5255 64.2658 14.6921 64.3401C28.5001 70.2501 45.4661 68.72 66.6561 59.79C68.6615 55.6322 69.2347 50.9276 68.2861 46.4099C65.4461 34.9499 52.6661 17.04 39.1661 4.96997C37.8835 3.71505 36.2132 2.93242 34.4281 2.75L18.1281 2.43994C17.5339 2.54741 16.9867 2.83407 16.5599 3.26123C16.1331 3.68839 15.8471 4.23578 15.7401 4.83008L13.6641 16.02C13.6127 16.2299 13.623 16.45 13.694 16.6541C13.765 16.8581 13.8935 17.0373 14.0641 17.1699L17.4581 18.0801C17.612 18.1196 17.7563 18.1895 17.8828 18.2856C18.0092 18.3818 18.115 18.5022 18.1941 18.6399C18.8551 19.7399 19.1941 20.03 19.3421 19.97L32.8421 13.9199C33.2863 12.9396 33.6217 11.9136 33.8421 10.8601H33.8331ZM32.8051 15.6699C32.5994 15.423 32.4984 15.1056 32.5237 14.7852C32.5491 14.4647 32.6987 14.1669 32.9407 13.9553C33.1826 13.7438 33.4977 13.6351 33.8187 13.6528C34.1396 13.6705 34.4408 13.8132 34.6581 14.05C39.6581 19.73 41.0261 26.6001 40.2261 35.8601C40.1983 36.185 40.0425 36.4855 39.7931 36.6956C39.5437 36.9056 39.221 37.0078 38.8961 36.98C38.5712 36.9521 38.2707 36.7963 38.0607 36.5469C37.8506 36.2975 37.7483 35.9748 37.7761 35.6499C38.5161 26.9899 37.2761 20.7399 32.8051 15.6699ZM45.1361 51.3601C45.3988 51.1666 45.7267 51.0833 46.0499 51.1282C46.3731 51.173 46.666 51.3424 46.8661 51.6001C47.06 51.8608 47.1436 52.1874 47.0987 52.5093C47.0538 52.8311 46.884 53.1224 46.6261 53.3201C35.6161 61.6101 24.8261 61.7 14.5831 53.2C14.3393 52.9892 14.1878 52.6911 14.1615 52.3699C14.1352 52.0486 14.236 51.7299 14.4423 51.4822C14.6485 51.2345 14.9438 51.0779 15.2645 51.0457C15.5852 51.0134 15.9057 51.1084 16.1571 51.3101C25.5011 59.0601 35.0201 58.9901 45.1361 51.3601ZM48.9961 44.23C49.1489 44.5132 49.1848 44.845 49.0963 45.1543C49.0077 45.4636 48.8016 45.7259 48.522 45.8853C48.2425 46.0446 47.9117 46.0884 47.6004 46.0071C47.2891 45.9257 47.0219 45.7257 46.8561 45.45C40.5761 34.41 29.8851 31.9199 17.8461 38.6699C17.6101 38.8003 17.338 38.8504 17.071 38.8125C16.804 38.7746 16.5565 38.6509 16.3661 38.46C11.9241 33.99 6.9391 31.9999 1.3241 32.4399C1.16388 32.4531 1.00265 32.4347 0.849608 32.3855C0.696566 32.3363 0.554701 32.2573 0.432128 32.1533C0.309555 32.0493 0.208696 31.9223 0.135253 31.7793C0.0618097 31.6363 0.0172207 31.4803 0.00408847 31.3201C-0.00904372 31.1599 0.00953676 30.9985 0.0587149 30.8455C0.107893 30.6924 0.186708 30.5506 0.29071 30.428C0.394711 30.3054 0.521863 30.2045 0.664855 30.1311C0.807847 30.0577 0.963871 30.0131 1.12408 30C7.20108 29.52 12.6661 31.5601 17.4451 36.0801C30.3201 29.2601 42.1711 32.24 48.9911 44.23H48.9961Z" fill="#008833"/>
</svg>
