<svg width="75" height="81" viewBox="0 0 75 81" fill="none" xmlns="http://www.w3.org/2000/svg">
<path fill-rule="evenodd" clip-rule="evenodd" d="M2.80119 66.2694C2.55019 70.3994 2.30122 74.3994 0.180218 78.2794C0.0913966 78.4148 0.0335348 78.5682 0.0108456 78.7286C-0.0118436 78.889 0.00116769 79.0524 0.0489315 79.2071C0.0966953 79.3619 0.178031 79.5042 0.287152 79.6239C0.396273 79.7436 0.53052 79.8374 0.680218 79.8993C0.819128 79.9749 0.971767 80.0219 1.12913 80.0377C1.2865 80.0534 1.44541 80.0376 1.59654 79.9911C1.74767 79.9445 1.88795 79.8681 2.00914 79.7664C2.13033 79.6648 2.22999 79.5399 2.30223 79.3993C4.67223 75.0193 4.92318 70.6493 5.17119 66.3993C6.29419 49.0093 10.7842 57.7692 10.6622 38.1292C10.6622 32.9992 10.5362 27.7495 12.6622 21.3695C13.1524 19.8568 14.015 18.4916 15.1708 17.3995C16.3265 16.3074 17.7383 15.5233 19.2762 15.1195C24.7672 13.7395 28.3852 11.3594 30.0062 7.98935C30.5849 6.87663 30.9178 5.65255 30.9823 4.39999C31.0469 3.14744 30.8416 1.89564 30.3802 0.72934C30.2476 0.431502 30.0021 0.19847 29.6977 0.0816349C29.3934 -0.0352002 29.055 -0.0263151 28.7572 0.106293C28.4593 0.238901 28.2264 0.484539 28.1095 0.78891C27.9927 1.09328 28.0016 1.4315 28.1342 1.72934C28.709 3.46318 28.5749 5.35396 27.7612 6.98935C26.3882 9.60935 23.3932 11.6095 18.5292 12.8595C16.5708 13.3325 14.7696 14.3081 13.3035 15.69C11.8374 17.072 10.7571 18.8123 10.1692 20.7393C8.05023 27.4993 8.05021 33.2494 8.05021 38.2494C8.41921 57.3894 3.92919 47.8894 2.80619 66.2694H2.80119ZM16.1512 79.8993C16.2901 79.9748 16.4426 80.022 16.5999 80.0377C16.7572 80.0534 16.916 80.0377 17.0671 79.9911C17.2181 79.9445 17.3583 79.868 17.4794 79.7664C17.6005 79.6648 17.7001 79.5399 17.7722 79.3993C26.5052 62.6393 20.8922 43.7594 20.6422 43.0094C20.5455 42.7549 20.375 42.5351 20.1524 42.3783C19.9298 42.2215 19.6654 42.1346 19.3932 42.1292C19.1203 42.1432 18.8603 42.2501 18.6562 42.432C18.4522 42.6138 18.3164 42.8597 18.2712 43.1292C14.6522 70.3992 8.29023 77.7693 8.16423 77.8993C8.05786 78.0222 7.97673 78.1651 7.92552 78.3194C7.87431 78.4738 7.85402 78.6367 7.86577 78.7989C7.87751 78.9611 7.92108 79.1192 7.994 79.2645C8.06692 79.4098 8.16771 79.5395 8.29069 79.6458C8.41367 79.7522 8.55641 79.8334 8.71074 79.8846C8.86506 79.9358 9.02799 79.9562 9.19017 79.9444C9.35234 79.9327 9.51059 79.8889 9.65593 79.816C9.80126 79.7431 9.93084 79.6424 10.0372 79.5194C10.2872 79.2694 15.9012 72.8994 19.6452 50.2594C20.5202 57.1394 20.7672 68.1493 15.6532 78.1493C15.5311 78.4552 15.514 78.793 15.6045 79.1097C15.695 79.4264 15.8879 79.704 16.1532 79.8993H16.1512ZM71.6702 66.2694C70.5472 47.7594 66.0572 57.5194 66.1792 38.2594C66.1792 33.1294 66.3052 27.4994 64.0592 20.7494C63.4521 18.8329 62.3656 17.1032 60.9028 15.7242C59.4399 14.3452 57.6491 13.3626 55.7002 12.8695C50.9582 11.6195 47.8382 9.73947 46.4682 7.10947C45.6599 5.4335 45.5264 3.51096 46.0952 1.73935C46.1609 1.59188 46.1968 1.43295 46.201 1.27158C46.2053 1.1102 46.1777 0.94963 46.1199 0.79892C46.062 0.648211 45.975 0.510257 45.8639 0.393158C45.7528 0.27606 45.6197 0.181964 45.4722 0.116303C45.3247 0.050642 45.1658 0.0148168 45.0044 0.01059C44.843 0.00636327 44.6824 0.0337938 44.5317 0.0916447C44.3809 0.149496 44.2431 0.236627 44.126 0.347748C44.0089 0.45887 43.9149 0.591875 43.8492 0.73935C43.4271 1.91208 43.2427 3.15721 43.3067 4.40195C43.3708 5.64669 43.682 6.86613 44.2222 7.98935C45.8442 11.2393 49.4622 13.7395 54.9532 15.1195C56.4995 15.5056 57.9202 16.2833 59.0785 17.378C60.2368 18.4727 61.0935 19.8474 61.5662 21.3695C63.5662 27.7495 63.5662 32.9992 63.5662 38.1292C63.4412 57.8892 67.9342 48.8893 69.0572 66.3993C69.3082 70.6493 69.5572 75.0293 71.9262 79.4093C72.0856 79.6795 72.3408 79.88 72.6411 79.9708C72.9414 80.0616 73.2648 80.0359 73.5472 79.8993C73.8243 79.7467 74.0313 79.4928 74.1246 79.1905C74.2178 78.8883 74.1901 78.5616 74.0472 78.2794C72.1752 74.3994 71.9242 70.3994 71.6732 66.2694H71.6702ZM64.5622 79.6493C64.6744 79.7682 64.8097 79.8631 64.9598 79.9278C65.1099 79.9926 65.2717 80.026 65.4352 80.026C65.5987 80.026 65.7605 79.9926 65.9106 79.9278C66.0608 79.8631 66.196 79.7682 66.3082 79.6493C66.5357 79.4212 66.6737 79.119 66.6968 78.7977C66.72 78.4764 66.6267 78.1575 66.4342 77.8993C66.3082 77.7793 59.8212 70.3992 56.2022 43.1292C56.1771 42.8519 56.0467 42.5949 55.8378 42.4107C55.6289 42.2266 55.3575 42.1294 55.0792 42.1393C54.7999 42.1005 54.5162 42.1686 54.2848 42.3299C54.0535 42.4912 53.8915 42.7339 53.8312 43.0094C53.5802 43.7594 47.9672 62.6493 56.7002 79.4093C56.7744 79.5485 56.8753 79.6719 56.9971 79.7721C57.1189 79.8723 57.2593 79.9475 57.4102 79.9935C57.5611 80.0395 57.7196 80.0552 57.8766 80.0399C58.0336 80.0246 58.186 79.9786 58.3252 79.9044C58.4644 79.8302 58.5876 79.7293 58.6878 79.6075C58.7881 79.4857 58.8633 79.3453 58.9092 79.1944C58.9552 79.0435 58.971 78.8851 58.9557 78.7281C58.9405 78.5711 58.8944 78.4186 58.8202 78.2794C53.5802 68.2794 53.9532 57.2693 54.8282 50.3893C58.5722 73.0192 64.3112 79.3993 64.5622 79.6493ZM38.4842 4.35947C38.3847 4.06176 38.1711 3.81557 37.8902 3.67538C37.6094 3.5352 37.2844 3.51245 36.9867 3.61191C36.689 3.71136 36.443 3.92507 36.3028 4.2059C36.1627 4.48674 36.1397 4.81176 36.2392 5.10947C36.4481 5.6799 36.6152 6.26478 36.7392 6.85947C36.8336 7.16731 37.0402 7.42846 37.3179 7.5914C37.5957 7.75434 37.9244 7.8071 38.2392 7.73935C38.5369 7.63038 38.7873 7.42092 38.947 7.14706C39.1068 6.87321 39.1659 6.55215 39.1142 6.23935C38.7382 5.10935 38.4902 4.35947 38.4902 4.35947H38.4842ZM35.9842 66.7694C36.2946 66.7126 36.5714 66.5387 36.7575 66.2838C36.9436 66.0289 37.0247 65.7122 36.9842 65.3993C36.8582 64.1393 36.7332 63.0194 36.6112 61.7694C36.6033 61.6137 36.5649 61.461 36.498 61.3202C36.4312 61.1793 36.3372 61.0531 36.2215 60.9486C36.1059 60.8441 35.9708 60.7633 35.824 60.711C35.6771 60.6587 35.5214 60.636 35.3657 60.6439C35.21 60.6518 35.0574 60.6903 34.9166 60.7572C34.7758 60.824 34.6495 60.9179 34.545 61.0335C34.4405 61.1492 34.3598 61.2842 34.3075 61.431C34.2552 61.5778 34.2323 61.7336 34.2402 61.8893C34.3652 63.1493 34.4912 64.3994 34.6132 65.7694C34.6354 65.9262 34.6889 66.0769 34.7704 66.2127C34.852 66.3485 34.96 66.4666 35.0881 66.5599C35.2161 66.6532 35.3616 66.7197 35.5159 66.7557C35.6702 66.7917 35.8301 66.7964 35.9862 66.7694H35.9842ZM36.2362 73.1493C36.3356 73.447 36.5493 73.6932 36.8301 73.8333C37.111 73.9735 37.436 73.9963 37.7337 73.8968C38.0314 73.7974 38.2774 73.5837 38.4176 73.3028C38.5578 73.022 38.5806 72.697 38.4812 72.3993C38.1311 71.248 37.8391 70.0798 37.6062 68.8993C37.5665 68.7424 37.4961 68.5951 37.3989 68.4657C37.3018 68.3363 37.1799 68.2275 37.0403 68.1456C36.9008 68.0637 36.7463 68.0103 36.5859 67.9886C36.4256 67.967 36.2625 67.9775 36.1062 68.0194C35.9438 68.0489 35.7899 68.1132 35.6548 68.2079C35.5197 68.3026 35.4066 68.4254 35.3235 68.568C35.2403 68.7105 35.1891 68.8693 35.1731 69.0335C35.1572 69.1978 35.177 69.3635 35.2312 69.5194C35.4903 70.7486 35.8242 71.9608 36.2312 73.1493H36.2362ZM35.8592 46.6393C35.4862 47.8893 35.2352 49.1393 34.9842 50.3893C34.9592 50.5449 34.9652 50.7041 35.0018 50.8575C35.0383 51.0109 35.1046 51.1556 35.1971 51.2833C35.2895 51.411 35.4062 51.5193 35.5405 51.6019C35.6748 51.6845 35.824 51.7398 35.9797 51.7647C36.1354 51.7897 36.2945 51.7839 36.4479 51.7474C36.6012 51.7109 36.7459 51.6445 36.8736 51.5521C37.0014 51.4597 37.1096 51.3429 37.1922 51.2086C37.2749 51.0743 37.3303 50.9251 37.3552 50.7694C37.5736 49.5823 37.8659 48.41 38.2302 47.2594C38.2907 47.1044 38.3153 46.9379 38.3022 46.7721C38.289 46.6063 38.2384 46.4455 38.1542 46.3021C38.0699 46.1587 37.9543 46.0362 37.8159 45.9439C37.6775 45.8517 37.52 45.792 37.3552 45.7694C37.1996 45.7243 37.0364 45.7111 36.8756 45.7308C36.7148 45.7505 36.5595 45.8026 36.4194 45.8839C36.2792 45.9652 36.1569 46.0741 36.06 46.2039C35.963 46.3338 35.8934 46.4818 35.8552 46.6393H35.8592ZM38.6072 8.98935C38.4511 9.03004 38.3045 9.10107 38.1759 9.19858C38.0473 9.29608 37.9393 9.41808 37.858 9.55746C37.7767 9.69685 37.7237 9.85092 37.7021 10.0108C37.6805 10.1707 37.6908 10.3334 37.7322 10.4893C37.9822 11.6193 38.2322 12.7395 38.4812 14.1195C38.5061 14.2752 38.5615 14.4244 38.6441 14.5587C38.7268 14.693 38.835 14.8095 38.9627 14.9019C39.0905 14.9944 39.2352 15.0607 39.3886 15.0973C39.542 15.1338 39.701 15.1398 39.8567 15.1148C40.0124 15.0899 40.1617 15.0346 40.2959 14.952C40.4302 14.8694 40.5469 14.7611 40.6393 14.6334C40.7318 14.5057 40.7982 14.361 40.8347 14.2076C40.8712 14.0542 40.8772 13.895 40.8522 13.7393C40.6015 12.3593 40.3515 11.1093 40.1022 9.98935C40.0241 9.6644 39.8262 9.38103 39.5481 9.19565C39.27 9.01026 38.9322 8.93651 38.6022 8.98935H38.6072ZM34.3642 54.1393C34.2141 55.4274 34.1303 56.7226 34.1132 58.0194C34.0973 58.3338 34.2069 58.6415 34.418 58.8751C34.6291 59.1087 34.9243 59.2488 35.2387 59.2647C35.5531 59.2807 35.8609 59.1711 36.0945 58.9601C36.3281 58.749 36.4683 58.4537 36.4842 58.1393C36.5009 56.9256 36.5847 55.7138 36.7352 54.5094C36.7539 54.3453 36.7394 54.179 36.6927 54.0206C36.646 53.8622 36.5679 53.7147 36.4632 53.587C36.3585 53.4593 36.2292 53.3538 36.083 53.2769C35.9369 53.2001 35.7768 53.1532 35.6122 53.1393C35.4629 53.1107 35.3091 53.1148 35.1615 53.1515C35.014 53.1881 34.8761 53.2563 34.7575 53.3514C34.6388 53.4465 34.5422 53.5662 34.4743 53.7022C34.4064 53.8383 34.3688 53.9873 34.3642 54.1393ZM39.6042 38.6292C39.2892 38.5586 38.9591 38.6102 38.6807 38.7735C38.4023 38.9369 38.1962 39.1999 38.1042 39.5094C37.7312 40.6294 37.3542 41.8794 36.9812 43.0094C36.9304 43.1572 36.9094 43.3136 36.9194 43.4696C36.9294 43.6256 36.9702 43.7781 37.0395 43.9183C37.1087 44.0585 37.205 44.1835 37.3229 44.2862C37.4407 44.389 37.5777 44.4674 37.726 44.5169C37.8743 44.5665 38.0309 44.5861 38.1868 44.5748C38.3427 44.5635 38.4949 44.5215 38.6344 44.451C38.774 44.3806 38.8982 44.2831 39 44.1644C39.1017 44.0457 39.179 43.9081 39.2272 43.7594C39.6002 42.5094 40.1012 41.2492 40.3492 40.1292C40.4289 39.9848 40.4723 39.8232 40.4757 39.6583C40.4792 39.4934 40.4424 39.3303 40.3688 39.1827C40.2951 39.0351 40.1866 38.9075 40.0527 38.8111C39.9188 38.7148 39.7635 38.6523 39.6002 38.6292H39.6042ZM41.3502 36.3792C41.6012 35.1292 41.8502 33.8792 41.9742 32.6292C41.9992 32.4736 41.9932 32.3148 41.9567 32.1615C41.9202 32.0081 41.8539 31.8634 41.7615 31.7357C41.6691 31.608 41.5524 31.4999 41.4182 31.4173C41.284 31.3347 41.1348 31.2792 40.9792 31.2542C40.8236 31.2293 40.6646 31.2353 40.5113 31.2718C40.358 31.3083 40.2133 31.3747 40.0856 31.4671C39.9579 31.5595 39.8497 31.6762 39.7671 31.8104C39.6845 31.9446 39.6292 32.0937 39.6042 32.2494C39.4782 33.3694 39.2302 34.6192 38.9802 35.8792C38.9476 36.0357 38.9481 36.1974 38.9819 36.3536C39.0156 36.5099 39.0817 36.6574 39.1759 36.7865C39.2702 36.9156 39.3904 37.0234 39.529 37.1031C39.6675 37.1829 39.8212 37.2327 39.9802 37.2494C40.1275 37.3089 40.2869 37.3326 40.4451 37.3182C40.6033 37.3039 40.7559 37.2519 40.8901 37.1668C41.0243 37.0818 41.1363 36.9661 41.2168 36.8292C41.2974 36.6922 41.3441 36.5379 41.3532 36.3792H41.3502ZM40.1022 16.3695C39.7903 16.4272 39.5125 16.6026 39.3263 16.8595C39.1402 17.1163 39.06 17.435 39.1022 17.7494C39.3532 18.9994 39.4752 20.2495 39.6022 21.3695C39.6186 21.5336 39.6672 21.6929 39.7452 21.8382C39.8231 21.9836 39.929 22.1122 40.0567 22.2166C40.1844 22.3211 40.3314 22.3995 40.4894 22.4471C40.6473 22.4948 40.8131 22.5109 40.9772 22.4945C41.1414 22.4781 41.3007 22.4294 41.446 22.3514C41.5914 22.2734 41.72 22.1676 41.8244 22.0399C41.9289 21.9122 42.0073 21.7652 42.0549 21.6073C42.1026 21.4493 42.1186 21.2836 42.1022 21.1195C41.9772 19.8695 41.8522 18.6195 41.6022 17.3695C41.5025 17.0575 41.2998 16.7885 41.0273 16.6068C40.7547 16.4251 40.4286 16.3415 40.1022 16.3695ZM42.2252 24.8792C42.2173 24.7236 42.1788 24.5711 42.112 24.4303C42.0451 24.2895 41.9512 24.1632 41.8356 24.0587C41.7199 23.9542 41.5848 23.8734 41.438 23.8211C41.2911 23.7688 41.1354 23.7459 40.9797 23.7538C40.824 23.7616 40.6714 23.8002 40.5306 23.867C40.3898 23.9339 40.2635 24.0277 40.159 24.1434C40.0545 24.2591 39.9738 24.3943 39.9215 24.5411C39.8692 24.688 39.8463 24.8437 39.8542 24.9994C39.9793 26.2061 39.9793 27.4225 39.8542 28.6292C39.8494 28.9408 39.9624 29.2427 40.1706 29.4745C40.3789 29.7062 40.6669 29.8508 40.9772 29.8792C41.2837 29.8639 41.5755 29.7432 41.803 29.5372C42.0304 29.3312 42.1796 29.0528 42.2252 28.7494C42.3475 27.4589 42.3475 26.1599 42.2252 24.8695V24.8792ZM38.1072 78.6493C38.1729 78.7967 38.2669 78.93 38.384 79.0411C38.5011 79.1522 38.6389 79.2391 38.7897 79.297C38.9404 79.3548 39.101 79.3825 39.2624 79.3783C39.4237 79.374 39.5827 79.338 39.7302 79.2723C39.8777 79.2066 40.0107 79.1125 40.1219 78.9955C40.233 78.8784 40.32 78.7406 40.3778 78.5899C40.4357 78.4392 40.4633 78.2787 40.4591 78.1173C40.4549 77.9559 40.4189 77.7967 40.3532 77.6493C40.0908 77.1318 39.8818 76.5891 39.7292 76.0294C39.6743 75.8708 39.5883 75.7247 39.4764 75.5997C39.3644 75.4747 39.2286 75.3735 39.0769 75.3016C38.9253 75.2297 38.7609 75.1886 38.5933 75.181C38.4257 75.1734 38.2582 75.1991 38.1007 75.2569C37.9432 75.3147 37.7987 75.4034 37.6758 75.5177C37.5529 75.6319 37.454 75.7695 37.3849 75.9225C37.3157 76.0754 37.2778 76.2406 37.2732 76.4083C37.2687 76.576 37.2975 76.7428 37.3582 76.8993C37.6802 77.4489 37.9319 78.0368 38.1072 78.6493Z" fill="#008833"/>
</svg>
