<svg width="67" height="81" viewBox="0 0 67 81" fill="none" xmlns="http://www.w3.org/2000/svg">
<path fill-rule="evenodd" clip-rule="evenodd" d="M30.417 33.24C29.1368 33.2404 27.8961 32.797 26.9062 31.9851C25.9164 31.1732 25.2387 30.0431 24.9887 28.7876C24.7387 27.532 24.9318 26.2287 25.5351 25.0996C26.1384 23.9705 27.1146 23.0855 28.2973 22.5955C29.48 22.1054 30.796 22.0408 32.0211 22.4124C33.2462 22.7839 34.3046 23.5688 35.0158 24.6333C35.727 25.6978 36.0471 26.976 35.9215 28.25C35.7959 29.524 35.2324 30.715 34.327 31.6201C33.8136 32.1337 33.204 32.5411 32.5331 32.8191C31.8623 33.0971 31.1432 33.24 30.417 33.24ZM30.417 19.3901C28.7722 19.3876 27.1635 19.8729 25.7947 20.7849C24.4259 21.6969 23.3583 22.9945 22.7272 24.5134C22.0961 26.0324 21.9298 27.7046 22.2494 29.3181C22.5689 30.9316 23.3599 32.4139 24.5223 33.5776C25.6847 34.7414 27.1662 35.5342 28.7793 35.8557C30.3924 36.1772 32.0646 36.0131 33.5843 35.3838C35.104 34.7545 36.4029 33.6885 37.3166 32.3208C38.2302 30.9531 38.7176 29.345 38.717 27.7002C38.7183 26.6094 38.5046 25.5289 38.0881 24.5208C37.6715 23.5126 37.0604 22.5965 36.2895 21.8247C35.5187 21.0529 34.6032 20.4407 33.5956 20.0229C32.5879 19.6052 31.5078 19.3901 30.417 19.3901ZM33.182 27.7002C33.189 28.0678 33.1226 28.433 32.9868 28.7747C32.8509 29.1163 32.6484 29.4275 32.3909 29.6899C32.1334 29.9524 31.8262 30.1607 31.4872 30.303C31.1481 30.4453 30.7842 30.5188 30.4165 30.5188C30.0488 30.5188 29.6849 30.4453 29.3459 30.303C29.0069 30.1607 28.6996 29.9524 28.4421 29.6899C28.1846 29.4275 27.9821 29.1163 27.8462 28.7747C27.7104 28.433 27.644 28.0678 27.651 27.7002C27.651 24.0102 33.182 24.0102 33.182 27.7002ZM29.034 12.47H29.881L29.103 14.8C28.9883 15.1486 29.0163 15.5283 29.1809 15.8562C29.3454 16.1841 29.6331 16.4336 29.981 16.55C30.1536 16.6088 30.3361 16.6327 30.5179 16.6201C30.6998 16.6076 30.8773 16.559 31.0401 16.4771C31.2029 16.3951 31.3478 16.2816 31.4663 16.1431C31.5847 16.0045 31.6744 15.8437 31.73 15.6702L33.113 11.52C33.1832 11.3121 33.2028 11.0903 33.17 10.8733C33.1373 10.6563 33.0532 10.4502 32.9248 10.2722C32.7964 10.0942 32.6273 9.94937 32.4317 9.84985C32.236 9.75034 32.0195 9.69917 31.8 9.7002H30.953L31.731 7.36011C31.8464 7.01161 31.8186 6.63147 31.6537 6.30347C31.4889 5.97547 31.2005 5.72645 30.852 5.61108C30.5035 5.49571 30.1235 5.52363 29.7955 5.68848C29.4675 5.85332 29.2184 6.1415 29.103 6.48999L27.721 10.6501C27.6527 10.8581 27.6345 11.0791 27.668 11.2954C27.7015 11.5117 27.7858 11.717 27.9138 11.8945C28.0419 12.072 28.2102 12.2169 28.4048 12.3169C28.5995 12.4169 28.8151 12.4692 29.034 12.47ZM16.469 17.55C16.5682 17.7444 16.7118 17.9127 16.8881 18.0413C17.0644 18.1698 17.2684 18.2552 17.4838 18.2903C17.6992 18.3253 17.9198 18.3092 18.1278 18.2432C18.3358 18.1771 18.5253 18.063 18.681 17.9102L19.281 17.3101L20.381 19.51C20.5442 19.8401 20.8318 20.0921 21.1806 20.2102C21.5294 20.3283 21.9108 20.3031 22.241 20.1401C22.5699 19.9716 22.8194 19.6807 22.936 19.3301C23.0504 18.98 23.0216 18.5989 22.856 18.27L20.9 14.3501C20.8015 14.1546 20.6586 13.985 20.4827 13.8547C20.3067 13.7245 20.1027 13.6372 19.887 13.6001C19.6705 13.5692 19.4498 13.5884 19.2418 13.656C19.0338 13.7236 18.844 13.8377 18.687 13.99L18.087 14.5901L16.987 12.3901C16.9076 12.2245 16.7959 12.0763 16.6586 11.9543C16.5213 11.8324 16.3611 11.7391 16.1873 11.6797C16.0135 11.6203 15.8296 11.5959 15.6463 11.6084C15.4631 11.6208 15.2842 11.6698 15.12 11.7522C14.9558 11.8345 14.8097 11.9487 14.6902 12.0881C14.5706 12.2276 14.48 12.3894 14.4237 12.5642C14.3674 12.739 14.3464 12.9234 14.3621 13.1064C14.3778 13.2894 14.4298 13.4674 14.515 13.6301L16.469 17.55ZM15.207 29.0901V28.24L17.536 29.02C17.8848 29.1357 18.2652 29.108 18.5935 28.9431C18.9219 28.7783 19.1714 28.4899 19.287 28.1411C19.4027 27.7924 19.375 27.4119 19.2101 27.0835C19.0453 26.7551 18.7567 26.5058 18.408 26.3901L14.259 25C14.0506 24.9307 13.8287 24.9122 13.6117 24.9458C13.3946 24.9794 13.1887 25.0641 13.011 25.1931C12.8333 25.3221 12.6889 25.4918 12.5898 25.6877C12.4906 25.8837 12.4396 26.1005 12.441 26.3201V27.1702L10.111 26.3901C9.76223 26.2746 9.38189 26.3023 9.0536 26.4673C8.72532 26.6322 8.47601 26.9208 8.3605 27.2695C8.245 27.6183 8.27278 27.9986 8.43771 28.3269C8.60265 28.6552 8.89125 28.9045 9.24001 29.02L13.388 30.4001C13.5282 30.4485 13.6757 30.472 13.824 30.47C14.0057 30.4712 14.1858 30.4363 14.354 30.3674C14.5221 30.2985 14.6749 30.1972 14.8035 30.0688C14.9321 29.9405 15.034 29.7879 15.1033 29.6199C15.1726 29.4519 15.2078 29.2718 15.207 29.0901ZM21 35.28L17.087 37.24C16.8915 37.3368 16.722 37.4791 16.5928 37.6548C16.4635 37.8305 16.3782 38.0346 16.344 38.25C16.309 38.4677 16.3256 38.6905 16.3922 38.9006C16.4589 39.1108 16.5739 39.3025 16.728 39.4602L17.328 40.05L15.133 41.1602V41.1501C14.8059 41.3164 14.5577 41.605 14.4423 41.9534C14.327 42.3017 14.3538 42.6814 14.517 43.01C14.5974 43.1729 14.7092 43.3183 14.8461 43.4377C14.9829 43.5572 15.1421 43.6484 15.3144 43.7061C15.4866 43.7637 15.6686 43.7867 15.8498 43.7737C16.0309 43.7606 16.2078 43.7119 16.37 43.6301L20.28 41.6702C20.4753 41.5722 20.6446 41.4293 20.774 41.2532C20.9034 41.0771 20.9892 40.8727 21.0243 40.657C21.0595 40.4413 21.0429 40.2203 20.9761 40.0122C20.9093 39.8041 20.7941 39.6151 20.64 39.4602L20.04 38.8601L22.235 37.76C22.3987 37.6794 22.5448 37.5674 22.665 37.4302C22.7852 37.293 22.8772 37.1335 22.9357 36.9607C22.9941 36.7879 23.0179 36.6053 23.0056 36.4233C22.9933 36.2413 22.9452 36.0635 22.864 35.9001C22.783 35.7364 22.6704 35.5902 22.5327 35.4702C22.3949 35.3503 22.2347 35.2588 22.0613 35.2012C21.888 35.1435 21.7049 35.121 21.5228 35.1345C21.3406 35.1481 21.1629 35.1974 21 35.28ZM31.8 42.9402H30.953L31.73 40.6101C31.7878 40.4376 31.811 40.2554 31.7984 40.074C31.7858 39.8925 31.7375 39.7153 31.6564 39.5525C31.5753 39.3897 31.4629 39.2444 31.3257 39.125C31.1884 39.0056 31.029 38.9145 30.8565 38.8567C30.684 38.7989 30.5018 38.7755 30.3203 38.7881C30.1389 38.8007 29.9617 38.8491 29.7989 38.9302C29.636 39.0113 29.4908 39.1237 29.3714 39.261C29.252 39.3982 29.1608 39.5575 29.103 39.73L27.72 43.8901C27.6521 44.0981 27.6343 44.3192 27.6681 44.5354C27.7018 44.7516 27.7862 44.9569 27.9143 45.1343C28.0424 45.3117 28.2105 45.4563 28.4051 45.5564C28.5997 45.6565 28.8152 45.7092 29.034 45.7102H29.881L29.103 48.04C29.0452 48.2125 29.022 48.3947 29.0346 48.5762C29.0472 48.7576 29.0955 48.9348 29.1766 49.0977C29.2577 49.2605 29.3701 49.4058 29.5074 49.5251C29.6446 49.6445 29.804 49.7359 29.9765 49.7937C30.149 49.8515 30.3312 49.8747 30.5127 49.8621C30.6941 49.8494 30.8713 49.8011 31.0341 49.72C31.197 49.6389 31.3422 49.5264 31.4616 49.3892C31.581 49.2519 31.6722 49.0927 31.73 48.9202L33.113 44.76C33.1832 44.552 33.2028 44.3303 33.17 44.1133C33.1373 43.8962 33.0532 43.6902 32.9248 43.5122C32.7964 43.3342 32.6273 43.1896 32.4317 43.0901C32.236 42.9906 32.0195 42.9392 31.8 42.9402ZM44.365 37.8601C44.2676 37.6634 44.1247 37.4927 43.9481 37.3623C43.7715 37.2319 43.5663 37.1456 43.3496 37.1104C43.1329 37.0751 42.9109 37.0921 42.7021 37.1599C42.4933 37.2277 42.3037 37.3442 42.149 37.5L41.549 38.1001L40.449 35.9001C40.3682 35.7366 40.256 35.5906 40.1187 35.4705C39.9814 35.3503 39.8218 35.2585 39.649 35.2002C39.4766 35.1395 39.2937 35.1144 39.1113 35.1265C38.929 35.1385 38.7509 35.1872 38.588 35.27C38.4248 35.3524 38.2795 35.4663 38.1604 35.605C38.0412 35.7436 37.9507 35.9044 37.8938 36.0781C37.8369 36.2519 37.8149 36.4349 37.829 36.6172C37.8431 36.7994 37.8931 36.9772 37.976 37.1401L39.933 41.0601C40.0322 41.2544 40.1757 41.4227 40.3521 41.5513C40.5284 41.6799 40.7325 41.7652 40.9478 41.8003C41.1632 41.8353 41.3838 41.8192 41.5918 41.7532C41.7998 41.6871 41.9893 41.5731 42.145 41.4202L42.745 40.8201L43.845 43.02C43.9271 43.1825 44.0404 43.3273 44.1784 43.446C44.3164 43.5648 44.4765 43.6553 44.6494 43.7122C44.8224 43.769 45.0048 43.7912 45.1864 43.7776C45.3679 43.764 45.545 43.7146 45.7075 43.6326C45.87 43.5505 46.0148 43.4373 46.1335 43.2993C46.2522 43.1613 46.3426 43.0011 46.3995 42.8281C46.4564 42.6552 46.4786 42.4728 46.465 42.2913C46.4514 42.1097 46.4021 41.9325 46.32 41.77L44.365 37.8601ZM51.594 26.3901L47.445 25C47.2374 24.9308 47.0164 24.912 46.8001 24.9451C46.5838 24.9781 46.3785 25.0622 46.201 25.1902C46.0236 25.3205 45.8791 25.4905 45.7794 25.6868C45.6798 25.883 45.6275 26.0999 45.627 26.3201V27.1702L43.297 26.3901C42.9482 26.2746 42.5679 26.3023 42.2396 26.4673C41.9113 26.6322 41.662 26.9208 41.5465 27.2695C41.431 27.6183 41.4588 27.9986 41.6237 28.3269C41.7887 28.6552 42.0772 28.9045 42.426 29.02L46.574 30.4001C46.7142 30.4485 46.8617 30.4721 47.01 30.47C47.1917 30.4712 47.3718 30.4363 47.54 30.3674C47.7081 30.2985 47.8609 30.1972 47.9895 30.0688C48.1182 29.9405 48.2201 29.7879 48.2893 29.6199C48.3586 29.4519 48.3938 29.2718 48.393 29.0901V28.24L50.723 29.02C51.0718 29.1355 51.4521 29.1078 51.7804 28.9429C52.1087 28.7779 52.358 28.4894 52.4735 28.1406C52.589 27.7919 52.5612 27.4115 52.3963 27.0833C52.2314 26.755 51.9428 26.5056 51.594 26.3901ZM39.218 20.27C39.4317 20.2742 39.6431 20.2262 39.834 20.1301L43.747 18.1702C43.9422 18.0707 44.1113 17.9265 44.2404 17.7495C44.3694 17.5725 44.455 17.3674 44.4899 17.1511C44.5249 16.9348 44.5084 16.7133 44.4417 16.5046C44.3749 16.2959 44.26 16.1061 44.106 15.9502L43.506 15.3501L45.701 14.25C46.0299 14.085 46.2797 13.7962 46.3956 13.447C46.5115 13.0978 46.484 12.7171 46.319 12.3882C46.154 12.0593 45.8652 11.8093 45.516 11.6934C45.1668 11.5775 44.7859 11.6051 44.457 11.77L40.547 13.73C40.3517 13.8293 40.1826 13.9734 40.0534 14.1504C39.9242 14.3274 39.8386 14.5325 39.8035 14.7488C39.7685 14.9651 39.7849 15.1865 39.8515 15.3953C39.9182 15.604 40.0331 15.7942 40.187 15.9502L40.787 16.55L38.592 17.6501C38.3133 17.7895 38.0898 18.0188 37.9578 18.301C37.8258 18.5833 37.7929 18.9018 37.8645 19.2051C37.9362 19.5083 38.1081 19.7784 38.3525 19.9717C38.5969 20.165 38.8994 20.2701 39.211 20.27H39.218ZM58.909 49.6702C58.282 49.798 57.7185 50.1386 57.3139 50.6343C56.9093 51.13 56.6886 51.7503 56.689 52.3901V59.5601C56.69 60.1056 56.5836 60.6462 56.3756 61.1506C56.1677 61.655 55.8624 62.1134 55.4771 62.4998C55.0919 62.8861 54.6343 63.1927 54.1305 63.4021C53.6267 63.6115 53.0866 63.7194 52.541 63.72H40.097C39.7297 63.72 39.3774 63.866 39.1177 64.1257C38.8579 64.3855 38.712 64.7377 38.712 65.105C38.712 65.4723 38.8579 65.8247 39.1177 66.0845C39.3774 66.3442 39.7297 66.49 40.097 66.49H45.628V77.5701H15.207V62.01C15.207 56.65 12.794 53.56 10.243 50.29C6.74301 45.8 2.76201 40.7102 2.76201 27.7002C2.76201 19.0802 8.83302 2.77002 31.8 2.77002C43.919 2.77002 58.072 10.3901 58.072 31.8601V37.4001C58.0711 37.6195 58.1236 37.8356 58.225 38.03L63.534 48.49L58.909 49.6702ZM66.092 47.28L60.838 37.0601V31.8601C60.838 9.85011 46.253 0 31.8 0C6.64402 0 0 18.1202 0 27.7002C0 41.6702 4.473 47.4 8.065 52C10.509 55.13 12.445 57.6 12.445 62.01V77.5701C12.4442 77.9337 12.5152 78.294 12.6539 78.6301C12.7925 78.9663 12.9962 79.2717 13.2531 79.5291C13.5101 79.7864 13.8153 79.9905 14.1513 80.1296C14.4872 80.2688 14.8474 80.3404 15.211 80.3401H45.631C45.9947 80.3404 46.3548 80.2688 46.6907 80.1296C47.0267 79.9905 47.3319 79.7864 47.5889 79.5291C47.8458 79.2717 48.0495 78.9663 48.1881 78.6301C48.3268 78.294 48.3978 77.9337 48.397 77.5701V66.49H52.542C54.3766 66.4839 56.1341 65.7514 57.4299 64.4526C58.7256 63.1539 59.4542 61.3947 59.456 59.5601L59.525 52.3701L64.15 51.2002V51.1902C64.7761 51.064 65.3393 50.7253 65.7443 50.2314C66.1492 49.7376 66.371 49.1187 66.372 48.48C66.3696 48.0645 66.2753 47.6548 66.096 47.28H66.092Z" fill="#008833"/>
</svg>
