<svg width="72" height="61" viewBox="0 0 72 61" fill="none" xmlns="http://www.w3.org/2000/svg">
<path fill-rule="evenodd" clip-rule="evenodd" d="M60.5536 54.4401L52.4806 24.3803H68.6236L60.5536 54.4401ZM13.0826 57.6901H12.3936C12.3871 57.6845 12.3817 57.6777 12.3776 57.6701L3.4386 24.3803H29.9066C30.0875 24.3803 30.2661 24.3387 30.4285 24.259C30.5909 24.1792 30.7329 24.0632 30.8436 23.9201C30.9542 23.7775 31.0302 23.6112 31.0658 23.4343C31.1014 23.2573 31.0955 23.0744 31.0486 22.9001L29.9026 18.6303H48.4836C48.4878 18.6319 48.4916 18.6344 48.4944 18.6379C48.4972 18.6414 48.499 18.6456 48.4996 18.6501L49.7826 23.4301C49.7512 23.6025 49.7583 23.7798 49.8032 23.9492C49.8481 24.1185 49.9299 24.2759 50.0426 24.4101L58.9826 57.7001L13.0826 57.6901ZM2.4886 2.36029H37.7626C37.7777 2.3704 37.7901 2.38395 37.7986 2.40008L41.2446 16.2702H29.2296C28.9453 16.2665 28.664 16.3287 28.4077 16.4518C28.1515 16.575 27.9273 16.7558 27.7526 16.9802C27.5789 17.2116 27.4614 17.4802 27.4094 17.7648C27.3573 18.0494 27.3721 18.3424 27.4526 18.6203L28.3666 22.0202H7.3766L2.4886 2.36029ZM41.9606 2.36029C41.9757 2.3704 41.9881 2.38395 41.9966 2.40008L45.4426 16.2702H43.6776L40.2206 2.36029H41.9606ZM70.7726 22.7302C70.5977 22.5068 70.3731 22.3272 70.1167 22.2057C69.8604 22.0842 69.5792 22.0242 69.2956 22.0302H51.8496L50.7706 18.0102C50.6314 17.5184 50.3383 17.0841 49.9343 16.7709C49.5303 16.4578 49.0366 16.2823 48.5256 16.2702H47.8756L44.2876 1.83026C44.1603 1.32216 43.8715 0.868983 43.4647 0.538999C43.0579 0.209016 42.555 0.0199668 42.0316 0.000181133H1.8546C1.57574 -0.00374924 1.29971 0.0563296 1.04779 0.175962C0.795865 0.295595 0.574778 0.471527 0.401593 0.690123C0.218352 0.930356 0.0931368 1.20965 0.0357179 1.50628C-0.0217009 1.80292 -0.0097622 2.10883 0.0705995 2.40008L4.9496 22.0202H2.76759C2.48343 22.0165 2.20229 22.0787 1.94619 22.2018C1.6901 22.325 1.46603 22.5058 1.29159 22.7302C1.11814 22.9617 1.00077 23.2303 0.948712 23.5148C0.896656 23.7994 0.91133 24.0924 0.99159 24.3703L10.1046 58.3002C10.2431 58.7933 10.5357 59.229 10.9396 59.5439C11.3436 59.8587 11.8376 60.0362 12.3496 60.0502H59.7176C60.2296 60.0362 60.7236 59.8587 61.1275 59.5439C61.5315 59.229 61.8241 58.7933 61.9626 58.3002L71.0756 24.3703C71.1567 24.0925 71.1719 23.7993 71.1198 23.5146C71.0677 23.2299 70.9498 22.9613 70.7756 22.7302H70.7726ZM44.0366 36.0602C43.8934 36.0632 43.7525 36.0968 43.6235 36.1589C43.4944 36.221 43.3802 36.31 43.2886 36.4201C43.1955 36.521 43.1273 36.6423 43.0896 36.7743C43.0519 36.9063 43.0458 37.0453 43.0716 37.1801L43.8156 40.5102H40.6296L39.7516 36.5803C39.7187 36.4282 39.6332 36.2926 39.51 36.1974C39.3869 36.1023 39.2341 36.0537 39.0786 36.0602H35.1786L34.4346 32.7502H37.6796C37.8228 32.7472 37.9637 32.7137 38.0927 32.6515C38.2218 32.5894 38.336 32.5001 38.4276 32.3901C38.5205 32.2871 38.5883 32.164 38.6258 32.0305C38.6633 31.8969 38.6694 31.7566 38.6436 31.6203L37.8996 28.3002H41.0896L41.9676 32.2302C42.0023 32.3815 42.0885 32.5162 42.2114 32.611C42.3343 32.7059 42.4864 32.755 42.6416 32.7502H46.5416L47.2866 36.0602H44.0416H44.0366ZM48.0576 31.6203C48.0223 31.4701 47.9356 31.3367 47.8126 31.2436C47.6895 31.1505 47.5378 31.1034 47.3836 31.1103H43.4836L42.6056 27.1801C42.5715 27.0287 42.4856 26.8939 42.3627 26.799C42.2399 26.7041 42.0878 26.6549 41.9326 26.6601L36.9666 26.6501C36.8238 26.6528 36.6833 26.6866 36.5547 26.7487C36.4261 26.8109 36.3125 26.9 36.2216 27.0102C36.1293 27.1137 36.0615 27.2367 36.0234 27.3701C35.9853 27.5034 35.9779 27.6436 36.0016 27.7802L36.7456 31.1103H33.4966C33.3534 31.1132 33.2125 31.1468 33.0835 31.2089C32.9544 31.271 32.8402 31.3601 32.7486 31.4702C32.6555 31.571 32.5873 31.6924 32.5496 31.8244C32.5119 31.9564 32.5058 32.0953 32.5316 32.2302L33.6466 37.1901C33.6817 37.3403 33.7681 37.4734 33.891 37.5666C34.0139 37.6597 34.1655 37.707 34.3196 37.7001H38.2196L39.0976 41.6303C39.13 41.7829 39.2155 41.9188 39.339 42.0141C39.4625 42.1094 39.6158 42.1575 39.7716 42.1501L44.7376 42.1601C44.9678 42.1523 45.1887 42.0672 45.3645 41.9184C45.5403 41.7696 45.6608 41.566 45.7066 41.3403C45.729 41.224 45.7236 41.1039 45.6906 40.9902L44.9576 37.7101H48.2066C48.3496 37.7057 48.4902 37.6713 48.6192 37.6093C48.7482 37.5473 48.8628 37.4592 48.9556 37.3503C49.0485 37.2473 49.1164 37.124 49.1538 36.9904C49.1913 36.8568 49.1974 36.7166 49.1716 36.5803L48.0576 31.6203ZM15.5166 6.6203C15.5985 6.64426 15.6832 6.6575 15.7686 6.66009H16.2056L17.4776 6.65008L31.9466 6.6203L35.0466 6.61029C35.1136 6.60853 35.1805 6.60183 35.2466 6.59027C35.3663 6.55758 35.4767 6.49705 35.5687 6.41376C35.6607 6.33046 35.7318 6.22667 35.7762 6.11078C35.8206 5.99488 35.8371 5.87022 35.8243 5.74676C35.8115 5.62331 35.7698 5.50442 35.7026 5.40008C35.6777 5.36064 35.6488 5.32393 35.6166 5.29022C35.5425 5.21198 35.4534 5.14959 35.3546 5.10663C35.2558 5.06367 35.1493 5.04102 35.0416 5.04022L17.3156 5.08026H15.7676C15.716 5.08147 15.6648 5.0882 15.6146 5.10028C15.4452 5.13516 15.2919 5.22451 15.1783 5.35492C15.0646 5.48533 14.997 5.64961 14.9856 5.8222C14.9743 5.9948 15.0199 6.16631 15.1154 6.31048C15.211 6.45466 15.3512 6.56352 15.5146 6.6203H15.5166ZM18.7886 8.64007H18.7066C18.5139 8.66435 18.3366 8.7579 18.2078 8.90326C18.079 9.04862 18.0075 9.2359 18.0066 9.43011C18.007 9.59453 18.0593 9.75474 18.1561 9.88763C18.2529 10.0205 18.3892 10.1193 18.5456 10.1701C18.6264 10.1988 18.7118 10.2124 18.7976 10.2101H19.2786L35.6576 10.1701C35.8653 10.1706 36.0647 10.089 36.2122 9.94281C36.3597 9.79661 36.4433 9.59775 36.4446 9.39007C36.4436 9.18139 36.3604 8.98152 36.2131 8.83368C36.0658 8.68583 35.8663 8.60212 35.6576 8.60028L18.7886 8.64007ZM22.0886 11.7402C21.8799 11.742 21.6803 11.826 21.5331 11.9738C21.3858 12.1217 21.3026 12.3215 21.3016 12.5302C21.302 12.6946 21.3543 12.8546 21.4511 12.9875C21.5479 13.1204 21.6842 13.2194 21.8406 13.2702C21.9214 13.2989 22.0069 13.3125 22.0926 13.3102L36.4076 13.2802C36.616 13.2771 36.8149 13.1929 36.962 13.0453C37.1092 12.8978 37.193 12.6985 37.1956 12.4902C37.194 12.2824 37.1102 12.0838 36.9626 11.9377C36.8149 11.7915 36.6154 11.7096 36.4076 11.7101L22.0886 11.7402Z" fill="#008833"/>
</svg>
