<svg xmlns="http://www.w3.org/2000/svg" viewBox="0 0 228 39.01"><title>logo_innate_text</title><g id="Capa_2" data-name="Capa 2"><g id="Modo_de_aislamiento" data-name="Modo de aislamiento"><path style="fill:#000;" d="M165.1,1.46H152V0H187.1V1.46H174V39H165.1ZM228,37.67H210.86V20.39h13.41V19H210.86V1.46H228V0H201.94V1.46h0V19h0v1.43h0V37.67h0V39H228ZM0,39H8.86V0H0ZM67.82,0h0V39H69.2V5.7L93.73,39h2.63V0H94.93V26L75.78,0ZM24,0h0V39h1.43V5.7L49.9,39h2.63V0H51.1V26L32,0ZM126.71,0h1.92l18.09,39H137l-6-12.76H116.92L111.35,39h-1.43l13.8-31.64Zm3.68,24.82-6.64-14.23-6.21,14.23Z"/></g></g></svg>