<svg xmlns="http://www.w3.org/2000/svg" xmlns:xlink="http://www.w3.org/1999/xlink" viewBox="0 0 142.9 79.28"><defs><clipPath id="clip-path" transform="translate(0)"><rect width="142.9" height="79.28" style="fill:none"/></clipPath></defs><title>logo_innate_footer</title><g id="Capa_2" data-name="Capa 2"><g id="Capa_1-2" data-name="Capa 1"><path d="M95.29,36.09V37h8.19V60.5H109V37h8.23v-.89Zm31.29,0V37h0V48h0v.9h0V59.68h0v.84H142.9v-.84H132.16V48.85h8.4V48h-8.4V37H142.9v-.89ZM0,60.5H5.56V36.07H0ZM32,36.07v16.3L20,36.07H15V60.52h.9V39.65L31.28,60.52h1.65V36.07Zm27.47,0v16.3l-12-16.3h-5V60.52h.9V39.65L58.75,60.52h1.65V36.07Zm18.06,6.64,4.16,8.92H73.67Zm1.85-6.64-1.87,4.62L68.9,60.52h.89l3.49-8h8.86l3.73,8H92L80.62,36.07Z" transform="translate(0)" style="fill:#000"/><path d="M71.42,11.23V14L64.57,7.11h0v2.8l6.87,6.87v2.72l-6.85-6.85h0v2.8l6.87,6.87V25l-6.85-6.86,0,0V21l6.92,6.92V25.09h0l6.88-6.88v-2.8h0l-6.86,6.86V19.56l0,0,6.89-6.89V9.86h0L71.47,16.7V14h0l6.88-6.88V4.32ZM69.4,0V9.25l2,2V2Z" transform="translate(0)" style="fill:#000"/><g style="clip-path:url(#clip-path)"><path d="M12.51,79.14v-.57a2,2,0,0,1-.28.24,2.78,2.78,0,0,1-1.54.43,2.35,2.35,0,0,1-2-.93A2.11,2.11,0,0,1,8.3,77a2.14,2.14,0,0,1,.34-1.16,1.77,1.77,0,0,1,.27-.33,2.69,2.69,0,0,1,1.88-.68,3,3,0,0,1,1.39.32,1.85,1.85,0,0,1,.56.42A1.33,1.33,0,0,1,13,76l-.58.18a1.43,1.43,0,0,0-.23-.28,2,2,0,0,0-1.36-.49,2.56,2.56,0,0,0-.8.13A1.55,1.55,0,0,0,8.93,77a1.77,1.77,0,0,0,.38,1.09,2,2,0,0,0,1.51.63A1.81,1.81,0,0,0,12.36,78a1.26,1.26,0,0,0,.16-.54H10.69v-.5H13v2.2Z" transform="translate(0)" style="fill:#000"/><path d="M18.83,78.53a2.7,2.7,0,0,1-2,.72,4.13,4.13,0,0,1-.64-.05,2.24,2.24,0,0,1-1.61-1,2.15,2.15,0,0,1-.3-1.12,2.12,2.12,0,0,1,.42-1.33,1.74,1.74,0,0,1,.3-.3,2.73,2.73,0,0,1,1.8-.6,3.24,3.24,0,0,1,1.3.26,2.29,2.29,0,0,1,.89.73,2.22,2.22,0,0,1,.37,1.25,2,2,0,0,1-.54,1.42m-.21-2.2a2,2,0,0,0-1.87-1,2.19,2.19,0,0,0-1.41.53,1.42,1.42,0,0,0-.35.56,1.92,1.92,0,0,0-.09.61,1.7,1.7,0,0,0,.3,1,1.45,1.45,0,0,0,.33.31,2.23,2.23,0,0,0,1.34.36,2.71,2.71,0,0,0,.7-.08,1.52,1.52,0,0,0,1.15-1.13,2.18,2.18,0,0,0,.05-.47,1.69,1.69,0,0,0-.15-.73" transform="translate(0)" style="fill:#000"/><path d="M25.08,78.53a2.7,2.7,0,0,1-2,.72,4.12,4.12,0,0,1-.64-.05,2.24,2.24,0,0,1-1.61-1,2.15,2.15,0,0,1-.3-1.12A2.12,2.12,0,0,1,21,75.77a1.74,1.74,0,0,1,.3-.3,2.73,2.73,0,0,1,1.8-.6,3.24,3.24,0,0,1,1.3.26,2.3,2.3,0,0,1,.89.73,2.23,2.23,0,0,1,.37,1.25,2,2,0,0,1-.54,1.42m-.21-2.2a2,2,0,0,0-1.87-1,2.19,2.19,0,0,0-1.41.53,1.42,1.42,0,0,0-.35.56,1.92,1.92,0,0,0-.09.61,1.69,1.69,0,0,0,.3,1,1.45,1.45,0,0,0,.33.31,2.23,2.23,0,0,0,1.34.36,2.72,2.72,0,0,0,.7-.08A1.52,1.52,0,0,0,25,77.52a2.27,2.27,0,0,0,.05-.47,1.7,1.7,0,0,0-.15-.73" transform="translate(0)" style="fill:#000"/><path d="M30.67,78.64a2.92,2.92,0,0,1-2,.5H27V75h2.42a2.09,2.09,0,0,1,1.08.33A2,2,0,0,1,31.38,77a2.11,2.11,0,0,1-.7,1.62m-.94-3.13a2.63,2.63,0,0,0-.65-.06H27.61v3.18h1.54a1.72,1.72,0,0,0,1.12-.39,1.66,1.66,0,0,0,.5-1.24,1.45,1.45,0,0,0-1-1.48" transform="translate(0)" style="fill:#000"/><path d="M40,78.64a2,2,0,0,1-1.59.5H35.19V75h3.51a1.28,1.28,0,0,1,1.18.44,1,1,0,0,1,.14.54.94.94,0,0,1-.18.58,1.12,1.12,0,0,1-.62.36,1.31,1.31,0,0,1,.7.26.9.9,0,0,1,.31.77,1.11,1.11,0,0,1-.24.73m-1.62-1.18H36.68v.73h1.57a1.16,1.16,0,0,0,.21,0,.34.34,0,0,0,.28-.37.33.33,0,0,0-.38-.34m.17-1.41a.37.37,0,0,0-.35-.15H36.69v.65h1.38c.15,0,.37,0,.47-.16a.41.41,0,0,0,0-.17.32.32,0,0,0,0-.18" transform="translate(0)" style="fill:#000"/><path d="M45.76,78.82a2.32,2.32,0,0,1-.68.32,4.19,4.19,0,0,1-1.2.14,3.36,3.36,0,0,1-1.76-.4,2,2,0,0,1-1-1.8,2.06,2.06,0,0,1,.9-1.81,3.06,3.06,0,0,1,1.8-.47c.19,0,.37,0,.56,0a2.35,2.35,0,0,1,1.91.94A2.24,2.24,0,0,1,46.68,77a2.09,2.09,0,0,1-.92,1.78m-1-2.78a1.13,1.13,0,0,0-.4-.23,1.23,1.23,0,0,0-.44-.07,1.29,1.29,0,0,0-.54.09,1.26,1.26,0,0,0-.72,1.22,1.61,1.61,0,0,0,.08.51,1.16,1.16,0,0,0,1.18.8,1.44,1.44,0,0,0,.56-.1A1.28,1.28,0,0,0,45.15,77a1.35,1.35,0,0,0-.38-1" transform="translate(0)" style="fill:#000"/><polygon points="51.27 79.14 49.3 76.9 49.3 79.14 47.82 79.14 47.82 74.97 49.05 74.97 51.05 77.16 51.05 74.97 52.52 74.97 52.52 79.14 51.27 79.14" style="fill:#000"/><polygon points="53.81 79.14 53.81 74.97 58.21 74.97 58.21 75.9 55.31 75.9 55.31 76.58 58 76.58 58 77.53 55.31 77.53 55.31 78.19 58.27 78.19 58.27 79.14 53.81 79.14" style="fill:#000"/><path d="M63.32,78.58a2.52,2.52,0,0,1-2.12.68,2.33,2.33,0,0,1-1.84-.58,1.37,1.37,0,0,1-.34-.79l1.47,0a.42.42,0,0,0,.19.29,1.17,1.17,0,0,0,.74.18,1.13,1.13,0,0,0,.48-.09.4.4,0,0,0,.24-.33.32.32,0,0,0-.24-.3,4.77,4.77,0,0,0-.64-.14c-.32-.07-.66-.12-1-.21a1.43,1.43,0,0,1-.89-.55,1.05,1.05,0,0,1-.17-.58,1.12,1.12,0,0,1,.18-.62c.27-.44.85-.73,1.92-.73a4.78,4.78,0,0,1,1.3.17,1.29,1.29,0,0,1,.41.21,1.18,1.18,0,0,1,.49.84l-1.46.08A.92.92,0,0,0,62,76c-.09-.16-.31-.25-.69-.25a1,1,0,0,0-.56.14.26.26,0,0,0-.1.2.23.23,0,0,0,.1.19,7.45,7.45,0,0,0,1.69.44,1.57,1.57,0,0,1,.86.41,1,1,0,0,1,.28.72,1.27,1.27,0,0,1-.28.79" transform="translate(0)" style="fill:#000"/><path d="M71.93,78.59a1.75,1.75,0,0,1-1.6.54H67.66V75h3a1.4,1.4,0,0,1,1,.41,1,1,0,0,1,.22.66.84.84,0,0,1-.41.78l-.17.08a1.12,1.12,0,0,1,.5.3,1,1,0,0,1,.3.77,1.09,1.09,0,0,1-.18.62m-.92-3a1.23,1.23,0,0,0-.68-.13H68.25v1.28h2.18a.81.81,0,0,0,.74-.26.67.67,0,0,0,.11-.38.59.59,0,0,0-.28-.51m.36,1.94a.94.94,0,0,0-.86-.31H68.25v1.45h2.26a1,1,0,0,0,.84-.3.77.77,0,0,0,0-.85" transform="translate(0)" style="fill:#000"/><polygon points="73.54 79.14 73.54 74.97 77.39 74.97 77.39 75.48 74.13 75.48 74.13 76.72 77.3 76.72 77.3 77.22 74.13 77.22 74.13 78.62 77.54 78.62 77.54 79.14 73.54 79.14" style="fill:#000"/><polygon points="80.68 75.46 80.68 79.14 80.09 79.14 80.09 75.46 78.39 75.46 78.39 74.97 82.39 74.97 82.39 75.46 80.68 75.46" style="fill:#000"/><polygon points="85.45 75.46 85.45 79.14 84.86 79.14 84.86 75.46 83.16 75.46 83.16 74.97 87.16 74.97 87.16 75.46 85.45 75.46" style="fill:#000"/><polygon points="88.35 79.14 88.35 74.97 92.2 74.97 92.2 75.48 88.94 75.48 88.94 76.72 92.11 76.72 92.11 77.22 88.94 77.22 88.94 78.62 92.35 78.62 92.35 79.14 88.35 79.14" style="fill:#000"/><path d="M97.63,79.14l-1.41-1.67h-2v1.67h-.6V75h2.84a2.24,2.24,0,0,1,.66.06A1.13,1.13,0,0,1,98,76.19a1.1,1.1,0,0,1-.67,1.07,1.89,1.89,0,0,1-.45.11l1.54,1.77Zm-.36-3.33a.76.76,0,0,0-.78-.34H94.2V77h2.06a1.14,1.14,0,0,0,1-.31.68.68,0,0,0,.15-.46.78.78,0,0,0-.11-.41" transform="translate(0)" style="fill:#000"/><polygon points="105.38 79.14 103.39 76.9 103.39 79.14 101.92 79.14 101.92 74.97 103.15 74.97 105.14 77.16 105.14 74.97 106.62 74.97 106.62 79.14 105.38 79.14" style="fill:#000"/><polygon points="107.91 79.14 107.91 74.97 112.31 74.97 112.31 75.9 109.41 75.9 109.41 76.58 112.1 76.58 112.1 77.53 109.41 77.53 109.41 78.19 112.37 78.19 112.37 79.14 107.91 79.14" style="fill:#000"/><path d="M116.57,79.14l-.86-1.52h-.79v1.52h-1.5V75h3.07a1.49,1.49,0,0,1,1.44.57,1.37,1.37,0,0,1,.21.75,1.16,1.16,0,0,1-.57,1,1.29,1.29,0,0,1-.39.14l1,1.67Zm0-3.06a.47.47,0,0,0-.43-.17h-1.24v.77H116c.28,0,.43,0,.53-.15a.36.36,0,0,0,.08-.24.38.38,0,0,0-.06-.21" transform="translate(0)" style="fill:#000"/><polygon points="122.03 79.14 120.64 79.14 118.75 74.97 120.32 74.97 121.33 77.48 122.37 74.97 123.94 74.97 122.03 79.14" style="fill:#000"/><polygon points="124.81 79.14 124.81 74.97 129.21 74.97 129.21 75.9 126.3 75.9 126.3 76.58 128.99 76.58 128.99 77.53 126.3 77.53 126.3 78.19 129.26 78.19 129.26 79.14 124.81 79.14" style="fill:#000"/><path d="M134.32,78.58a2.53,2.53,0,0,1-2.12.68,2.33,2.33,0,0,1-1.84-.58,1.36,1.36,0,0,1-.34-.79l1.47,0a.42.42,0,0,0,.19.29,1.17,1.17,0,0,0,.74.18,1.14,1.14,0,0,0,.48-.09.4.4,0,0,0,.24-.33.32.32,0,0,0-.24-.3,4.8,4.8,0,0,0-.64-.14c-.32-.07-.65-.12-1-.21a1.43,1.43,0,0,1-.89-.55,1.06,1.06,0,0,1-.17-.58,1.13,1.13,0,0,1,.18-.62c.27-.44.85-.73,1.92-.73a4.77,4.77,0,0,1,1.3.17,1.32,1.32,0,0,1,.41.21,1.19,1.19,0,0,1,.48.84l-1.46.08A.82.82,0,0,0,133,76c-.09-.16-.31-.25-.68-.25a1,1,0,0,0-.56.14.26.26,0,0,0-.09.2.23.23,0,0,0,.09.19,7.44,7.44,0,0,0,1.69.44,1.57,1.57,0,0,1,.86.41,1,1,0,0,1,.28.72,1.27,1.27,0,0,1-.28.79" transform="translate(0)" style="fill:#000"/></g></g></g></svg>