<svg width="81" height="81" viewBox="0 0 81 81" fill="none" xmlns="http://www.w3.org/2000/svg">
<path fill-rule="evenodd" clip-rule="evenodd" d="M38.757 1.33618V5.33618H1.34003C0.984637 5.33618 0.643785 5.47722 0.392487 5.72852C0.141188 5.97981 0 6.32064 0 6.67603C0 7.03142 0.141188 7.37224 0.392487 7.62354C0.643785 7.87483 0.984637 8.01611 1.34003 8.01611H38.76V13.3562H6.68301C6.32895 13.3562 5.98937 13.4967 5.73901 13.7471C5.48865 13.9974 5.34802 14.3371 5.34802 14.6912C5.34802 15.0452 5.48865 15.3846 5.73901 15.635C5.98937 15.8854 6.32895 16.0261 6.68301 16.0261H38.757V21.366H16.04C15.6859 21.366 15.3464 21.5067 15.096 21.7571C14.8457 22.0074 14.705 22.3471 14.705 22.7012C14.705 23.0552 14.8457 23.3947 15.096 23.645C15.3464 23.8954 15.6859 24.0361 16.04 24.0361H38.759V29.376H24.059C23.705 29.376 23.3654 29.5167 23.115 29.7671C22.8647 30.0175 22.724 30.3571 22.724 30.7112C22.724 31.0652 22.8647 31.4047 23.115 31.655C23.3654 31.9054 23.705 32.0461 24.059 32.0461H38.759V37.396H32.077C31.723 37.396 31.3834 37.5367 31.133 37.7871C30.8827 38.0375 30.742 38.3771 30.742 38.7312C30.742 39.0853 30.8827 39.4247 31.133 39.675C31.3834 39.9254 31.723 40.0662 32.077 40.0662H38.759V77.4561H1.34003C0.985963 77.4561 0.646388 77.5968 0.396027 77.8472C0.145666 78.0975 0.00500488 78.437 0.00500488 78.791C0.00500488 79.1451 0.145666 79.4847 0.396027 79.7351C0.646388 79.9855 0.985963 80.126 1.34003 80.126H78.852C79.2061 80.126 79.5457 79.9855 79.796 79.7351C80.0464 79.4847 80.187 79.1451 80.187 78.791C80.187 78.437 80.0464 78.0975 79.796 77.8472C79.5457 77.5968 79.2061 77.4561 78.852 77.4561H41.432V72.116H76.179C76.5331 72.116 76.8726 71.9755 77.123 71.7251C77.3733 71.4747 77.514 71.1351 77.514 70.781C77.514 70.4269 77.3733 70.0875 77.123 69.8372C76.8726 69.5868 76.5331 69.446 76.179 69.446H41.429V64.0962H66.821C67.1751 64.0962 67.5147 63.9554 67.765 63.7051C68.0154 63.4547 68.156 63.1151 68.156 62.761C68.156 62.4069 68.0154 62.0675 67.765 61.8171C67.5147 61.5668 67.1751 61.426 66.821 61.426H41.429V56.0862H58.802C59.1561 56.0862 59.4957 55.9454 59.746 55.6951C59.9964 55.4447 60.137 55.105 60.137 54.751C60.137 54.3969 59.9964 54.0575 59.746 53.8071C59.4957 53.5568 59.1561 53.416 58.802 53.416H41.429V48.0762H50.785C51.1391 48.0762 51.4786 47.9354 51.729 47.6851C51.9794 47.4347 52.12 47.095 52.12 46.741C52.12 46.3869 51.9794 46.0475 51.729 45.7971C51.4786 45.5468 51.1391 45.406 50.785 45.406H41.429V1.33618C41.429 0.981852 41.2883 0.641906 41.0377 0.391357C40.7872 0.140809 40.4473 0 40.093 0C39.7387 0 39.3989 0.140809 39.1483 0.391357C38.8978 0.641906 38.757 0.981852 38.757 1.33618Z" fill="#008833"/>
</svg>
